<?xml version="1.0" encoding="UTF-8"?>
<!DOCTYPE svg PUBLIC "-//W3C//DTD SVG 1.1//EN" "http://www.w3.org/Graphics/SVG/1.1/DTD/svg11.dtd">
<!-- Creator: CorelDRAW X7 -->
<svg xmlns="http://www.w3.org/2000/svg" xml:space="preserve" width="62.6532mm" height="18.6266mm" version="1.1" style="shape-rendering:geometricPrecision; text-rendering:geometricPrecision; image-rendering:optimizeQuality; fill-rule:evenodd; clip-rule:evenodd"
viewBox="0 0 6265 1863"
 xmlns:xlink="http://www.w3.org/1999/xlink">
 <defs>
  <style type="text/css">
   <![CDATA[
    .fil1 {fill:none}
    .fil8 {fill:#FEFEFE}
    .fil0 {fill:#ED3237}
    .fil16 {fill:#C9CACB}
    .fil6 {fill:#C1C0C1}
    .fil10 {fill:#BCBDBD}
    .fil18 {fill:#A6A6A5}
    .fil9 {fill:#9A9C9D}
    .fil14 {fill:#969695}
    .fil11 {fill:#8C8E8E}
    .fil17 {fill:#898A8A}
    .fil13 {fill:#828484}
    .fil7 {fill:#767677}
    .fil12 {fill:#6B6B6B}
    .fil15 {fill:#69696A}
    .fil5 {fill:#292929}
    .fil3 {fill:black}
    .fil4 {fill:black}
    .fil19 {fill:#868686}
    .fil2 {fill:#FEFEFE}
   ]]>
  </style>
 </defs>
 <g id="Capa_x0020_1">
  <metadata id="CorelCorpID_0Corel-Layer"/>
  <g id="_1740072383200">
   <g>
    <path class="fil0" d="M5732 830l3 19 6 0c-7,23 -5,8 8,15 0,-25 2,-12 -8,-15 15,-11 8,-9 28,-11 -10,6 -12,2 -15,12 -9,27 5,21 6,21 -3,-20 -2,-7 4,-10 4,5 4,4 14,7 1,1 10,1 12,2l51 -13 -5 -8c0,0 -2,-1 -3,-1 12,-12 10,-9 11,-27 -24,-6 -48,10 -75,17 6,-4 12,-6 17,-8 7,-3 6,-2 11,-5 7,-4 7,-5 11,-8 -10,-32 -38,-34 -73,-38l-3 51zm79 38c-13,1 -11,-3 -12,8 15,5 12,8 12,-8z"/>
    <path class="fil0" d="M5738 1083c36,3 17,2 26,-7 -9,-11 -12,-9 -13,-10l26 -13c-12,-12 -15,-11 -33,-15 7,14 -2,4 14,14l-20 4 8 20 -19 -1 5 26c-10,-5 -11,-7 -23,-12l-8 19c-1,-2 -4,-6 -5,-8l-12 -10c-7,9 -4,6 -12,14l-1 -25c-8,-3 -1,-5 -16,-2 6,-14 7,-5 0,-18 -5,7 -8,12 -14,20 1,1 3,2 4,2 1,1 3,2 4,3l14 5 -1 33c23,-9 7,-2 25,-19l17 27 12 -27c2,0 3,1 4,2l11 7c3,1 5,12 10,4 1,-1 4,2 6,2l-9 -35z"/>
    <path class="fil0" d="M5321 877c4,-6 -6,7 0,0zm41 -6l-21 -20c0,1 0,4 -1,7 -6,9 -7,9 -11,13l-20 -12 9 36c41,-41 5,14 30,-25l12 13 12 -20 8 23 23 -6 -9 27 23 1c-3,4 -6,5 -9,9 -8,8 -6,5 -7,10 -6,21 6,-11 0,9l-8 12 29 -2c-4,-13 -1,-4 -14,-17 10,-14 14,-15 26,-23 -13,-11 -8,-4 -26,-10l9 -29 -31 10c-4,-45 -3,-26 -11,-34l-13 28z"/>
   </g>
   <g>
    <path class="fil0" d="M5203 984l8 9c0,1 1,2 2,3 10,13 31,37 41,8 5,-15 -23,-44 -31,-61 7,-2 25,-6 30,-8 9,-5 7,-2 12,-10l5 -10c0,-1 0,-3 1,-4l5 21 -26 8c-7,44 3,33 10,60l-12 18c-31,6 -36,-13 -45,-34zm-63 1c13,12 14,17 16,35l-16 -35zm-89 -42c0,-16 10,-2 3,0 0,0 -3,21 -3,0zm233 -17c9,-5 13,-8 19,-14 -5,15 -2,13 -19,14zm-123 -157c14,21 16,23 33,37 -20,-6 -28,-12 -33,-37zm77 11l-8 16c-10,-7 -29,-15 -40,-26l13 -14c18,6 26,12 35,24zm-196 -10l32 -1 4 -39 31 23 -27 50 -10 -30 -35 2c3,10 2,36 23,33 42,-4 -15,7 14,-5 1,0 2,-1 4,-2 -2,17 -7,23 -13,40 -3,6 -5,12 -8,18 -10,21 -5,-2 -9,19 36,14 71,27 114,27 6,-19 -10,-6 10,-30 9,-12 16,-16 26,-24 14,11 24,32 29,47l35 -8 5 21c-14,-19 2,-7 -18,-16 -17,12 -46,15 -60,24 -28,18 0,30 14,65 -17,-6 -48,-9 -68,3l-10 -29c22,12 -5,15 57,15l-30 -47c-11,-14 2,-6 -19,-12 -16,-5 -26,-4 -43,-10 -16,-5 -28,-11 -43,-13 -4,27 2,23 4,46l-12 -18c-6,-8 0,-3 -9,-9 -24,1 -67,31 -88,44 -26,16 -67,28 -72,62 8,61 107,-22 150,-44 32,21 37,33 60,39l-26 -62c12,6 11,10 19,30 6,14 12,24 17,40 -56,-5 -133,-26 -117,40 29,15 154,23 186,12 8,-31 1,-24 -3,-51 14,12 14,20 14,43 50,-2 69,-6 101,-26 1,-10 0,-23 1,-31l10 -22c-20,93 67,86 86,55 14,-22 11,-77 -44,-78 -38,0 -11,-6 -33,-14 2,17 3,7 4,13 2,3 13,5 -13,24 8,-65 -7,-45 53,-32l6 -35c-31,-6 -30,-3 -40,-15 -13,-16 -2,-10 -25,-15 -14,-3 -14,-5 -25,-24 -40,-70 -29,-40 -57,-57 113,7 69,-126 -5,-93 -20,9 -26,27 -28,56 -14,-31 -4,-21 -51,-63 -28,-25 -59,-53 -67,-19 -3,11 -2,70 -1,83z"/>
    <path class="fil0" d="M4561 957c14,5 13,4 21,10 14,10 18,29 23,46 0,1 1,3 1,4 0,0 1,2 1,3l-16 18c5,-25 11,-42 -11,-64l-16 -14c-1,0 -2,-2 -3,-3zm-254 32c-14,16 -14,21 -4,37 -6,-3 -15,1 -13,-19 2,-16 5,-13 17,-18zm340 -14c1,-1 2,0 2,1 0,0 1,1 1,1 0,0 -15,8 -3,-2zm-85 -21c-22,12 -1,-1 -30,8l-25 12c4,-8 -1,-2 6,-9 13,-11 27,-12 49,-11zm-238 -48l10 32 -10 -32zm214 10c11,10 12,8 27,15 -22,-1 -23,1 -27,-15zm49 -31l17 8c10,4 10,3 19,8l-43 -8 -1 36c14,2 35,6 47,15 19,12 2,-1 13,18l8 13c-30,-13 -29,-36 -74,-42l4 -45c-28,6 -35,1 -39,28 -6,-12 0,-11 -16,-14 -71,71 -54,81 -135,79l4 54c-15,8 -20,11 -41,6 -9,-2 -16,-3 -25,-6l-22 -9c15,2 26,5 39,9l28 3c29,-6 10,-69 4,-83 -9,-22 2,-7 -19,-16 47,-3 4,11 37,30 19,10 34,3 57,1 -8,-12 -3,-7 -16,-17 -28,-20 -44,-33 -66,-27 -4,-36 -14,-44 -38,-20 -11,-16 -22,-18 -44,-13 -4,26 -3,26 21,36 18,7 28,14 49,14 -26,12 -15,-8 -16,19 0,0 6,32 6,35l-11 -37c-23,6 -47,19 -60,32 -12,64 66,74 123,71 40,-3 81,-18 92,-54 3,-8 1,-11 5,-21 10,-23 6,-10 13,-14 -9,28 -19,50 6,73 25,23 60,13 73,-11 1,3 9,-1 -7,22 47,-4 30,-31 33,-38 22,17 39,40 67,12 6,-32 -7,-39 -27,-47 13,-12 24,-18 30,-37 -8,-23 -36,-39 -60,-44 15,-6 19,1 24,-21 9,-34 -35,-71 -59,2z"/>
    <path class="fil0" d="M5811 868c0,16 3,13 -12,8 -18,-2 -20,4 -41,10l-9 -22c-13,-7 -15,8 -8,-15l-6 0c-17,15 -19,3 -19,31 14,12 9,11 30,8 -20,20 -13,-9 -23,30 0,2 -4,22 -3,24 3,18 1,8 13,15l-11 2c-22,-20 -50,-15 -68,5 -24,26 -10,60 10,73 28,18 58,4 69,-15 17,-31 -3,-23 4,-80l1 -6c4,17 7,70 21,84 16,17 54,14 71,34 21,-9 5,6 17,-17 0,25 2,23 28,18 4,-21 3,-19 -7,-32 -27,1 -7,-8 -21,14 5,-31 0,-16 21,-26 30,-15 37,-44 26,-67 -17,-34 -77,-43 -92,7 -12,43 16,50 40,59l-58 -15c-3,-25 -7,-57 -17,-73 -20,-1 -21,2 -30,12 8,-17 19,-26 36,-11 12,11 7,28 15,45 10,-15 34,-77 23,-100zm-21 2c-2,-1 -11,-1 -12,-2 -10,-3 -10,-2 -14,-7 -6,3 -7,-10 -4,10 -6,15 -3,5 4,9l26 -10zm54 -49c-1,18 1,15 -11,27 1,0 3,1 3,1l5 8c73,65 28,27 47,70l6 11c65,3 93,-34 150,-23 0,-36 1,-55 -8,-87 -38,6 -98,10 -125,37 12,10 29,18 34,40l-13 16c-17,2 -12,5 -34,-8 -12,-7 3,0 -10,-6 1,-1 3,-5 3,-4 0,2 3,-1 5,-2 2,-2 -1,7 12,13 25,12 49,-11 8,-40 -24,-17 -48,-34 -72,-53z"/>
    <path class="fil0" d="M6169 1049c8,-26 17,-70 23,-103 7,-43 20,-59 -20,-76 -9,11 -14,24 -26,31 1,-20 6,-20 14,-37l-115 -31 5 76c30,-4 24,-12 42,-12 5,0 16,4 19,6l12 12c0,-1 1,2 2,3l12 -10c10,-9 -1,-2 9,-7 -5,65 -67,173 23,148z"/>
    <path class="fil0" d="M5732 830l3 -51c-8,-12 30,0 33,1l-11 -31c20,-24 53,-43 66,-56 29,-28 -1,-66 -42,-37 -25,17 -123,81 -72,111 8,4 14,3 24,8 -33,-2 -30,-4 -42,-12l-6 -3c-10,12 -26,49 -21,62l68 8z"/>
    <path class="fil0" d="M5652 815c15,-48 49,-139 29,-183 -57,-12 -49,34 -58,86 -10,50 -32,92 29,97z"/>
    <path class="fil0" d="M4193 926c-57,26 -15,118 48,86 47,-23 23,-120 -48,-86z"/>
    <path class="fil0" d="M4465 949l21 -17c7,-8 13,-14 20,-21 -26,-117 -99,-54 -41,38z"/>
    <path class="fil0" d="M5340 957c2,1 15,1 15,1 20,-3 30,-19 -8,-42l-7 41z"/>
    <path class="fil0" d="M4513 1058c-7,-12 -13,-17 -20,-33 -11,7 -7,2 -16,12 18,17 -5,20 36,21z"/>
   </g>
   <path class="fil0" d="M5190 770c11,11 30,19 40,26l8 -16c-9,-12 -17,-18 -35,-24l-13 14z"/>
   <path class="fil0" d="M4606 1079c22,0 20,-2 31,-16l-12 -13c-17,27 -12,-4 -19,29z"/>
  </g>
  <g id="_1740072373856">
   <path class="fil0" d="M1642 806l-12 26c0,1 -1,1 -1,2l-9 7c3,-11 11,-26 22,-35zm-82 10l-3 -1c11,-19 49,4 18,26 7,-13 12,-16 6,-25 -6,-9 -14,-5 -21,0zm-6 9c-14,5 -8,5 -18,10l3 -20c3,9 0,6 6,8 6,2 6,-2 7,-2 4,3 4,3 8,8 6,6 5,6 8,11l-14 -15zm6 -56c1,-13 6,-3 2,-1 0,0 -3,11 -2,1zm0 3c-11,28 -30,17 -41,28 -12,16 -11,55 -5,74 33,6 37,-27 61,-33 -2,1 -7,1 -6,12l17 17c25,-16 16,-25 34,-29 -4,12 -12,20 -22,26 5,15 8,-1 6,40l-3 26c-3,9 -17,18 46,17 -7,-19 -8,-26 1,-48 5,-14 9,-29 18,-38 27,-25 42,-31 77,-28l-3 -49c-18,4 -20,11 -74,17 -2,0 -11,1 -11,1 -10,2 -1,-4 -8,4 -14,-21 3,-8 -20,-21 -9,-4 -16,-9 -22,-15l71 -1 0 -24 -112 0c-1,0 -2,-2 -2,-2l-5 -8c-20,-30 -62,-17 -65,12 -5,42 38,53 61,31l5 -6c1,-1 2,-2 2,-3z"/>
   <path class="fil0" d="M1253 911c1,1 3,1 3,2 1,9 8,-6 -14,16 -4,4 -4,5 -8,8l-11 8c10,-17 21,-19 30,-34zm-4 -124c-1,17 -3,17 -13,25 -5,4 -6,5 -10,8l-14 9c19,-24 21,-5 37,-42zm-36 5c-1,1 -2,1 -2,2l-6 5c-4,3 -4,3 -8,6l-15 -30c-18,4 -17,4 -25,17 -2,-12 -5,-8 5,-13 6,-3 15,-7 20,-9l8 8c2,6 0,8 5,19l15 -4c1,0 3,0 3,-1zm-65 -64c4,0 12,1 15,1 9,-2 6,-1 11,-5 -7,32 -4,15 5,38 -7,-8 -8,-9 -24,-8l-6 4c16,-14 15,-2 19,-24l-21 -4c-5,74 -24,89 17,83l-4 -21c0,0 1,1 1,2 0,1 1,2 2,2 12,22 7,29 23,43 15,-1 13,-3 20,-11 4,4 8,-4 10,31 3,38 0,36 -30,63l-12 12c7,9 22,21 34,27 5,-6 7,-11 11,-17 7,3 10,4 20,5l16 -2c1,-1 2,-1 3,-1 11,-4 -6,-26 5,-44 26,-42 6,-141 -33,-129l9 7c4,4 4,2 7,7 -13,-7 -19,-5 -30,4l-1 -3c-5,-5 -5,-3 -13,-5l-6 -2c0,0 -1,0 -2,-1 75,4 51,-87 -1,-68 -13,5 -11,6 -15,13 -7,-9 -7,-14 -18,-17 -11,7 -10,4 -12,20z"/>
   <path class="fil0" d="M251 781c-5,-10 -6,-14 -15,-19l-8 -4c12,-3 7,-10 23,15 0,1 1,2 1,3 1,1 1,2 2,3 0,1 1,2 1,3 -20,8 -38,29 -64,40l53 -37c1,-1 2,-1 2,-2l5 -2zm67 10l4 -4c0,0 10,13 11,16 -1,0 -2,-2 -2,-1 0,0 -2,-2 -4,-4l-9 -7zm-126 -6c-1,-1 9,-6 11,-7l4 -4c5,-4 2,-1 5,-6 13,8 5,-1 -17,19l-3 -2zm53 -39l25 -1c-2,4 -18,2 -22,2 -1,0 -2,-1 -3,-1zm-20 21c-7,3 -12,-2 -21,-3 -28,-4 -39,34 -35,57 12,5 10,5 22,1l-4 3c-17,13 -5,-1 -16,29 -2,8 -3,4 -3,8 11,8 29,9 42,11 15,1 36,3 47,-3 1,-1 1,-2 1,-2l8 -51c36,33 17,34 61,-5l14 -10c15,-12 7,-21 2,-27 -22,0 -30,23 -53,33 -7,-15 -11,-22 -24,-32l-5 -4c17,-14 1,-16 16,-20 0,0 3,1 4,0 8,-46 -18,-59 -43,-51 -17,5 -33,26 -21,50 2,2 6,8 6,8 5,10 5,-1 2,8z"/>
   <path class="fil0" d="M914 822c17,-18 45,-28 60,-45 -6,-12 -10,-14 -18,-24 14,6 17,16 24,27 -25,12 -40,30 -66,42zm26 -52l-22 15c7,-10 11,-11 22,-15zm28 -20c21,-21 27,0 27,1 -11,-7 -14,-6 -27,-1zm-10 11c-16,8 -12,7 -19,5l-18 -4c-19,2 -29,28 -30,45 0,18 7,17 23,15l-5 3c-11,9 -10,13 -18,38 27,9 63,11 94,8 -2,-14 1,-50 7,-64 12,-26 78,-15 109,-34l-5 -20 -110 21c5,-17 19,-20 21,-35 10,-61 -87,-49 -68,7 2,4 4,7 7,9l12 6z"/>
   <path class="fil0" d="M1812 863c-2,-5 0,-14 1,-3 0,3 1,13 -1,3zm-14 -14c-23,28 -1,33 13,26l11 -5c46,-6 34,-16 62,-27l-5 46c17,12 64,22 89,21 5,-12 -10,-7 27,-31 -1,-12 -15,-58 -21,-68 -7,-11 -14,-10 -30,-11 -9,-1 -33,-4 -41,-3 -14,0 -37,27 -48,35 -11,8 -44,20 -50,19 -12,-2 3,-3 -7,-2z"/>
   <path class="fil0" d="M579 798c3,4 2,-3 4,9 1,5 1,6 1,11l-5 -20zm-113 10c-6,-9 -12,-15 -26,-18 -4,6 -1,1 -5,6 -5,8 -2,2 -7,11 1,0 2,1 2,2 1,4 33,32 42,31 13,-6 2,1 12,-10l12 -11c1,9 3,18 4,26 0,3 1,12 1,14 4,19 -3,-11 2,7l2 6c22,4 71,3 89,-9 -6,-15 -8,-19 -10,-42l10 -3c0,-15 -3,-32 -12,-43 -11,-15 -24,-12 -45,-8 -57,10 -39,9 -71,41z"/>
   <path class="fil0" d="M507 879c-4,14 -12,19 -20,29 -22,25 -14,2 -23,19 12,8 26,19 41,22 7,-9 12,-16 17,-24l51 5 11 32 41 -14c-6,-19 -25,-49 -32,-76 -33,5 -51,9 -86,7z"/>
   <path class="fil0" d="M861 945c12,9 27,13 43,17 0,-14 4,-24 11,-33 48,-7 40,-11 65,19 15,-4 33,-14 40,-26 -12,-7 -22,-4 -43,-44 -35,1 -52,-3 -85,-7 -5,27 -24,53 -31,74z"/>
   <path class="fil0" d="M137 949l39 15 12 -34 48 -5 20 23c0,0 2,1 2,2 16,-7 31,-20 39,-25 -12,-11 -10,7 -44,-42 0,-1 -1,-2 -2,-2 0,-1 -1,-2 -1,-3 -26,6 -55,-3 -82,-5 -5,26 -28,61 -31,76z"/>
   <path class="fil0" d="M1844 947l22 -8c12,-2 15,0 15,0 1,1 2,1 3,2 0,0 2,0 3,1l-24 10c5,12 25,25 36,32 28,-36 64,-39 64,-68 -24,-1 -39,-4 -60,-11 -34,-11 -40,-1 -72,-6l13 48z"/>
   <path class="fil0" d="M1843 1089c49,21 32,-32 46,-104 -14,-11 -16,-19 -35,-22 -8,21 -17,102 -11,126z"/>
   <path class="fil0" d="M1253 954l-33 1c-1,36 9,45 42,83 7,8 10,19 25,19 12,-1 19,-9 18,-22 -1,-13 -35,-49 -43,-64l-7 -14c0,-1 -1,-2 -2,-3z"/>
   <path class="fil0" d="M496 956l-16 -12c-8,-5 -9,-6 -20,-8 -3,20 -7,40 -11,61 -4,19 -15,49 3,58 34,16 39,-59 44,-99z"/>
   <path class="fil0" d="M264 955c4,27 9,115 44,100 19,-9 8,-41 4,-59 -3,-19 -7,-46 -13,-61l-35 20z"/>
   <path class="fil0" d="M989 950c2,25 8,51 13,75 4,26 18,43 39,21 7,-18 -11,-89 -17,-112 -15,3 -19,11 -35,16z"/>
   <path class="fil0" d="M1155 1051c22,10 34,5 38,-20 3,-21 7,-47 8,-67 -13,-8 -18,-15 -34,-23 -7,22 -17,87 -12,110z"/>
   <path class="fil0" d="M1747 790l3 40c20,-3 39,-6 59,-10 20,-3 44,-3 43,-25 -2,-34 -80,-8 -105,-5z"/>
   <path class="fil0" d="M503 701c-18,7 -31,18 -24,45 5,19 22,27 45,20 45,-12 21,-81 -21,-65z"/>
   <path class="fil0" d="M857 1053c9,-11 34,-67 38,-87l-34 -12c-11,16 -17,36 -26,55 -11,25 -16,51 22,44z"/>
   <path class="fil0" d="M591 968c3,17 14,38 22,56 10,25 15,40 43,28 6,-24 -1,-29 -10,-50 -7,-16 -12,-32 -21,-46l-34 12z"/>
   <path class="fil0" d="M171 971l-37 -17c-6,24 -50,91 -20,101 23,8 29,-17 35,-32 8,-18 15,-36 22,-52z"/>
   <path class="fil0" d="M1639 957l-38 -2c-1,25 -17,99 15,99 20,-1 20,-19 21,-38 1,-19 4,-40 2,-59z"/>
   <path class="fil0" d="M1836 945l-14 -37c-8,6 -14,9 -21,16 -22,20 -55,39 -49,61 11,37 72,-27 84,-40z"/>
   <path class="fil0" d="M1918 792l6 2c28,6 22,-3 56,13 33,-78 -83,-70 -62,-15z"/>
   <path class="fil0" d="M1106 774c3,0 13,-1 20,-6 13,-10 1,-19 1,-19l-29 -2c0,4 1,8 2,14l6 13z"/>
   <path class="fil0" d="M1679 774c17,-3 16,-2 26,-9l-1 -16 -25 -6 0 31z"/>
   <path class="fil0" d="M423 805c17,-15 13,-8 19,-23 -8,-3 -18,-12 -26,-5 -12,10 2,23 7,28z"/>
  </g>
  <path class="fil1" d="M3123 4c480,0 869,389 869,869 0,479 -389,868 -869,868 -479,0 -868,-389 -868,-868 0,-480 389,-869 868,-869z"/>
  <path class="fil1" d="M3123 221c360,0 652,292 652,652 0,359 -292,651 -652,651 -359,0 -651,-292 -651,-651 0,-360 292,-652 651,-652z"/>
  <g id="_1740072365440">
   <path class="fil2" d="M3128 1171l12 11c16,-35 1,20 24,-18 10,9 6,13 19,4 30,-21 24,-16 34,-42 0,0 0,-1 0,-2 2,-4 9,-2 2,-18l4 0c0,-1 1,-1 1,-1 1,-1 7,2 9,-21 1,-17 3,-26 4,-42 -56,2 -7,107 -69,107 -169,0 -103,6 -138,-90 -6,-16 -10,-14 -25,-21l7 64c1,1 2,0 3,1 2,9 7,-5 8,7 2,13 -4,16 12,35 10,13 23,17 32,30 8,-4 1,1 6,-5l3 -4c0,0 1,-1 1,-2 5,6 3,6 9,9 7,5 -1,1 5,2l26 -1c-2,13 0,9 -6,12 -16,9 -2,1 -10,-2l-10 -1c-5,-1 0,3 -5,-2 -5,-5 -3,-3 -5,-10 -14,11 -6,14 -26,-3 -9,-7 -20,-13 -27,-24 -15,-23 -19,-42 -25,-69 -12,-59 -12,-33 -28,-72 -10,-24 -13,-60 -10,-92 -19,-13 -35,-50 -43,-76 -17,4 -31,20 -43,29 5,-30 31,-51 36,-73l-33 0c10,-16 48,-23 67,-80l-37 0c23,-19 59,-46 86,-60 27,-14 105,-8 125,7 4,39 1,80 1,119 0,8 -11,28 -18,32l0 -39c0,-19 -8,-69 -25,-69 -11,0 -21,1 -29,7l-4 -2c7,-11 27,-15 37,-23l0 -33c-61,0 -87,5 -118,56 -24,38 -34,76 -34,129 0,21 31,54 39,69 16,30 -20,130 80,137 68,5 62,-10 64,-36 -14,-9 -9,1 -21,-14 -22,-28 -20,-1 -46,-23 -10,-8 -14,-11 -15,-25 18,9 13,24 37,29 16,3 11,-4 23,9 13,15 14,17 34,17 20,0 14,-21 40,-26 14,-3 36,-13 36,-32 0,-9 -10,-16 -15,-21 -20,-19 -4,-24 -23,-42 -9,-8 -15,-10 -20,-20 18,-11 22,-12 50,-11 -10,-17 -37,-16 -38,-16l-6 -1c-1,-1 -2,-1 -3,-1 13,-10 19,-10 34,-4 -3,-15 -6,-15 -15,-22 16,-11 29,-20 42,-33 16,-17 31,-25 48,-3 -3,14 -10,19 -19,28 -10,11 -11,15 -31,15 3,14 9,42 21,48 4,-62 45,-18 46,-55 0,-10 -4,-14 -7,-24 -4,-13 -1,-31 -5,-41 -27,-13 -68,3 -95,7 15,-22 60,-34 69,-61 -21,-13 -52,-7 -76,-3 14,-20 29,-16 46,-29l-58 -1c28,-14 82,-8 107,7 15,9 68,46 75,55l-37 -1c16,53 54,60 66,80l-33 0c10,26 30,41 38,73 -15,-8 -24,-20 -42,-29 -12,15 -15,40 -28,58 -28,36 -10,15 -15,75 -3,28 -12,46 -24,67 -10,16 -9,59 -9,82 -5,12 -2,9 -13,1l-3 21c-8,1 -2,5 -7,-10 -9,35 -27,53 -56,70 -4,-43 -3,-20 -19,-18 -5,1 -3,-7 -10,9 -16,-13 -6,-15 -14,-1 1,-10 2,-9 3,-18zm0 -170l0 33c79,22 137,-2 138,-81 -1,1 -2,1 -2,3 0,1 -2,4 -2,5 -2,4 -2,7 -4,11 -7,19 -22,34 -42,35 18,-10 30,-28 38,-48 4,-12 4,-11 -7,-16 -10,11 -6,22 -20,38 -10,11 -24,20 -39,19 18,-11 51,-34 47,-58 -40,-1 -21,21 -49,34 -22,9 -13,-9 -30,5 -13,11 -6,18 -28,20zm112 42c1,-1 -1,-3 -1,-2l0 0c0,0 1,2 1,2zm-300 150c-4,-25 -4,-48 -3,-76 -18,9 -19,18 -33,32l15 -86c-21,15 -33,60 -44,68 -1,-57 -2,-43 7,-94 -11,9 -7,12 -18,22 0,-44 6,-82 18,-116 -22,15 -26,38 -41,57 -4,-30 -16,-87 16,-111 -4,27 -7,35 -7,69 14,-10 23,-25 48,-29 -7,29 -23,58 -23,94l38 -36c1,1 3,0 3,2 0,1 1,2 2,3l-36 101c19,-17 33,-44 54,-59 -2,13 -17,54 -18,88 12,-10 15,-21 29,-27l0 73c58,-8 29,-4 62,18l-10 -2c0,-1 -6,-4 -7,-4 -18,-6 -25,8 -52,13zm-18 -129c0,-1 -1,-2 -1,-1 0,0 -1,-1 -1,-1 1,0 -2,8 2,2zm387 53c0,14 4,21 3,36 -1,14 -3,23 -3,40 -16,-1 -22,-8 -36,-12 -23,-8 -18,3 -36,8 7,-12 19,-40 22,-56 27,-4 25,14 30,-22 2,-14 5,-39 -1,-51 6,2 2,0 6,4 10,8 12,13 21,19 0,-45 -8,-62 -10,-82 12,8 20,24 28,37l26 43c0,-20 -23,-78 -31,-93 10,2 14,8 22,16 8,8 14,13 21,19 2,-36 -23,-78 -21,-96 18,9 34,15 45,30 2,-24 3,-48 -6,-64l2 -4c1,0 11,16 13,21 9,22 9,67 3,88 -18,-13 -20,-43 -40,-52 4,20 8,30 11,54 2,12 2,48 5,57 -10,-4 -6,-11 -20,-20 16,36 8,54 7,94l-8 -16c-7,-15 -19,-41 -32,-48 1,12 12,75 15,82 -17,-11 -16,-26 -36,-32zm21 -54c1,-10 -2,16 0,0zm29 21c0,13 9,2 3,1 0,0 -1,-1 -1,-1 0,0 -2,-8 -2,0zm-590 1c-9,21 -22,33 -29,57 33,-4 48,-23 56,-27l8 -2c9,25 3,73 -8,90 22,-6 32,-26 54,-32 0,37 -2,52 -8,83 19,-13 35,-46 55,-59 9,27 18,50 10,81 19,-12 32,-37 51,-51 11,12 15,20 20,34l5 14c12,-13 16,-19 22,-37 35,20 26,32 44,40 2,-6 2,-7 5,-13l6 -12c7,11 52,65 61,72 16,-11 54,-62 69,-72 2,11 6,15 7,29 9,-5 14,-17 20,-24 8,-8 15,-17 27,-20 1,17 11,29 22,37 1,-20 13,-35 21,-48 12,5 12,10 26,25 9,8 16,18 24,25 2,-23 -1,-46 10,-70 5,-11 2,-4 5,-9 15,11 39,46 54,61 -8,-30 -7,-50 -7,-86 15,9 33,25 48,28 -13,-87 -4,-24 -4,-89 23,13 29,26 65,32 -10,-18 -21,-37 -29,-56 21,10 46,19 74,20 -13,-14 -29,-26 -39,-46 -9,-17 -20,-42 -24,-62 14,9 15,14 40,14 -12,-21 -18,-24 -22,-54 15,4 24,17 37,26 -12,-46 -59,-93 -77,-124l83 11c-8,-12 -42,-42 -75,-90l109 21c-12,-12 -29,-20 -45,-35 -16,-15 -25,-25 -39,-41 -19,-22 -51,-27 -51,-112l36 -4 -48 -46c-14,-17 -31,-37 -42,-55l25 -4c-19,-27 -92,-43 -127,-60 -5,-23 10,12 8,-8 -16,-8 -63,-9 -86,-12 -63,-8 -62,3 -92,3 -27,1 -49,-9 -88,-4 -19,3 -77,6 -87,13 -10,11 -2,-7 1,3 0,0 12,2 -16,12 -27,9 -95,34 -106,54l22 2c-9,17 -28,41 -41,55 -37,39 -34,32 -50,47l40 5c0,17 -8,50 -14,65 -9,25 -56,64 -77,85 -23,23 -36,27 -46,37 20,-6 86,-20 108,-21 -8,19 -58,78 -75,89l84 -10c-19,26 -72,91 -77,126 9,-8 23,-24 35,-28 0,26 -11,39 -21,54 25,0 26,-6 41,-14 -6,29 -23,65 -41,86 -9,11 -15,13 -23,22 26,0 59,-10 76,-21zm776 -99c3,2 -4,-4 0,0zm-99 218c1,0 1,-2 1,-2 0,1 1,0 1,0 0,0 -7,-6 -2,2zm-465 -266c7,14 9,27 16,39 9,14 19,20 30,31 -26,-6 -53,-30 -46,-70zm41 35c13,16 17,15 33,27 -37,-1 -52,-32 -57,-64 12,11 13,24 24,37zm99 -30c-20,-10 -33,-14 -61,-8 15,-16 48,-1 61,-1 6,0 18,-5 32,-5 4,0 15,0 18,0 10,2 4,1 8,3l5 4c-30,-11 -42,0 -63,7zm-101 -72c16,-24 51,-39 72,-7 -25,7 -37,1 -58,39 -3,5 -5,11 -10,17 2,-13 9,-24 16,-36 8,-14 17,-16 26,-26 -24,-2 -30,7 -46,13zm-37 -101c8,-14 8,-11 22,-18 38,13 41,40 69,47l-15 6c-8,2 -8,0 -17,3 18,3 32,3 50,16l4 4c-65,-16 -60,-12 -115,20 17,-25 37,-29 57,-38 -28,-2 -37,-14 -55,-40zm49 -29c36,7 34,21 45,29l13 11c-19,-2 -18,-8 -29,-20 -13,-12 -16,-11 -29,-20zm121 40c10,-12 5,-3 15,-11 10,-6 4,-6 12,-14 4,-4 8,-7 15,-11 15,-6 15,-1 16,-1 -36,9 -26,34 -58,37zm120 -192c23,-8 45,-14 73,-21 21,-5 68,-21 68,10 0,34 4,52 -13,78l-16 -2c21,-22 27,-25 20,-82 -13,-1 -38,4 -52,7 -8,1 -17,3 -25,4 -15,3 -12,1 -19,10 15,7 32,12 54,13l-13 9c-14,8 -6,-2 -12,10 10,2 15,6 27,10l-20 1c12,16 48,25 71,34 -27,6 -69,-16 -86,-26 -18,-12 -52,-36 -57,-55zm-441 3c0,-12 1,-32 14,-32 46,0 89,21 130,29 -20,30 -86,85 -145,82 23,-13 56,-15 70,-35l-19 -4c12,-1 18,-3 26,-11 -13,-8 -14,-3 -22,-15 20,-2 44,-4 54,-17 -17,-5 -34,-8 -53,-12 -27,-5 -48,-12 -48,5 0,35 -4,54 23,70l-16 6c-14,-24 -14,-37 -14,-66zm298 -29c13,-6 23,-17 36,-26 42,-29 77,-44 132,-53 -9,10 -41,20 -57,28 11,1 78,-11 100,8 -18,1 -37,0 -50,7l44 18c-95,0 -34,0 -98,11 11,-15 17,-17 32,-28 -29,-1 -94,15 -121,30 -3,1 -5,3 -7,4l-11 1zm-125 -50c-9,-8 -18,-10 -29,-15 -8,-3 -18,-6 -27,-12 28,-1 73,17 95,28 14,8 26,15 38,24l31 23c4,3 5,2 4,3l-4 3c-20,-20 -91,-39 -133,-40 11,15 17,9 29,29 -73,-17 -17,-11 -98,-11 4,-3 -1,0 7,-4 0,0 1,-1 2,-1 17,-8 24,-5 35,-16 -13,0 -15,-2 -26,-3 -23,-3 -13,1 -23,-4 42,-12 58,-6 99,-4z"/>
   <path class="fil3" d="M3461 647c0,1 0,1 0,2l0 1c0,3 1,5 3,7 0,2 2,3 3,5l0 0 0 0 1 0c0,0 0,1 0,2 0,1 1,3 2,4 0,1 0,1 0,1 0,2 1,3 2,4 0,1 0,1 1,2 0,0 0,0 0,1l0 4c0,2 0,4 1,6 1,0 1,1 1,1 1,2 2,3 3,4 1,1 2,2 3,3 1,2 3,4 5,5 1,0 1,1 1,1l1 1c1,1 1,2 2,2 1,2 1,3 2,4 1,0 1,1 2,1 0,0 0,1 0,1 1,2 3,4 5,5 1,2 4,4 6,5 0,1 0,2 -1,4 22,15 16,25 88,67 13,7 26,11 35,19 -44,5 -66,1 -108,-3 4,17 17,30 28,41 9,9 30,27 34,38l-70 0c8,24 20,39 30,62 5,10 9,21 13,33 4,12 6,26 10,34 -11,-5 -24,-27 -39,-34 3,16 14,28 15,33 0,17 -22,7 -34,8 14,27 30,54 51,75 8,8 16,12 23,21 -17,0 -27,-2 -43,-4 -12,-2 -26,-7 -38,-9 6,13 20,36 24,49 -29,-1 -54,-15 -73,-25 0,54 3,62 21,100 -21,-9 -47,-34 -64,-39 0,46 6,54 16,87l0 0 0 0c-1,0 -1,1 -1,1l1 -1 -17 0c-1,0 -3,0 -4,0l-38 -52c-1,-1 -2,-1 -3,-2 0,0 -1,-1 -3,-1 -2,0 -5,2 -5,5l-3 63c-2,0 -3,2 -4,3 -1,0 -2,0 -3,1l-4 0 -44 -48c0,0 0,0 0,0l0 -1 -1 0 0 0 0 0 0 0 0 0 0 0 0 0 0 0 0 0 0 0 0 0 0 0 0 0 0 0 0 0c-1,0 -1,0 -1,0l0 0 0 0 0 0 0 0 0 -1 0 0 0 0 0 0 -1 0 0 0 0 0 0 0 0 0c0,0 -1,0 -1,0l0 0 0 0 -1 0 0 0 0 0 0 0 0 0 0 0 0 0 0 0 0 0 0 0 0 1c-1,0 -1,0 -2,0l0 0 0 0 0 0 0 0 0 0 0 0 0 0 0 0 0 0 0 0c0,1 0,1 -1,1l0 0 0 0 0 0 0 0 0 0 0 0 0 1 0 0 0 0 0 0 0 0 0 0 0 0 0 0 0 0 0 0c0,0 0,0 0,0l-17 39c-1,1 -1,2 -2,3 0,0 -1,1 -1,1l0 0 -1 0 -24 -28c-1,-1 -2,-2 -3,-2 0,-1 0,-1 -1,-1 -2,-2 -5,-1 -7,1l-29 39 -1 0c0,-1 -1,-1 -1,-1 -1,0 -2,-1 -2,-1 -1,0 -1,0 -2,0 0,0 -1,-1 -1,-1l-10 -18c-1,0 -1,0 -1,0l0 0 0 0 0 0 0 -1 0 0 0 0 0 0 0 0c0,0 -1,0 -1,-1l0 0 0 0 0 0 0 0 0 0 -1 0 0 0 0 0 0 0 0 0 0 0 0 0 0 0c0,0 0,0 0,0l0 0c0,0 -1,0 -1,0l0 0 0 0 0 0 0 0 0 0 0 0 0 0 0 0 0 0 0 0 0 0 0 0 -1 0 0 -1 0 0 0 0 0 0c0,0 0,0 0,1l0 0c-1,0 -1,0 -1,0l0 0 0 0 0 0 0 0 0 0 0 0 0 0 0 0 0 0 0 0 0 0 0 0 -1 0 0 0 0 0c0,0 -1,0 -1,0l0 0 0 0 0 1 0 0 0 0 0 0 0 0 0 0c0,0 -1,0 -1,0l-56 62 -51 -61c0,-1 -1,-2 -1,-2 -1,-1 -3,-1 -4,-1 -1,0 -2,0 -3,1 -1,0 -2,1 -2,2l-10 13c-1,0 -2,-1 -3,-1l0 0 -1 0 -29 -31c-2,-2 -5,-2 -7,0 -1,1 -2,2 -2,3l-21 24c-1,0 -3,2 -4,3l0 0 -1 0c0,0 0,0 0,0 0,-1 0,-1 -1,-1l0 0c0,-1 0,-1 -1,-2 -1,-1 -2,-2 -4,-3l-14 -35c0,0 0,-1 0,-1 -1,-1 -1,-1 -2,-2 -2,-2 -5,-2 -7,1l-45 48 -4 0c0,-1 -1,-2 -2,-3l-4 -63c0,-3 -3,-5 -6,-5 -1,0 -3,1 -4,3 0,0 -1,1 -1,1l-8 12c-2,0 -3,1 -4,2l-16 20c0,0 0,0 0,0l-1 0c-2,0 -4,2 -5,4l0 0c0,0 0,0 0,0 0,0 0,0 0,0 -1,1 -1,1 -1,1l-1 2 -1 0c-3,0 -6,1 -8,4l-15 6c-2,-15 13,-21 13,-88 -19,9 -45,29 -62,40 7,-45 25,-26 18,-101 -15,10 -48,24 -72,25 4,-8 7,-15 12,-24 7,-10 11,-13 14,-26 -21,7 -55,15 -82,13 30,-26 57,-52 74,-97 -21,4 -15,5 -36,0 3,-20 16,-17 17,-42 -8,10 -31,33 -39,39 5,-26 13,-47 23,-68 6,-16 26,-49 28,-63l-68 0c4,-13 24,-26 34,-37 13,-14 19,-25 29,-41 -7,0 -44,3 -55,4 -28,4 -34,0 -56,-2 4,-3 -2,1 7,-4 43,-25 93,-45 120,-90 -13,0 -7,1 -14,-3 17,-10 26,-17 39,-36 7,-12 20,-37 19,-51 -13,-8 -29,-8 -44,-13l11 -12c5,-4 7,-5 12,-10 25,-19 48,-47 66,-72l-24 -6c16,-25 21,-25 50,-39 19,-10 44,-21 64,-27 -3,-9 -34,-5 20,-20 17,-5 37,-9 58,-11 27,-2 33,-3 61,0 11,1 21,0 32,1 33,4 21,4 55,0 53,-7 105,-3 155,11 7,2 16,3 25,8 12,6 -3,4 -7,13 30,4 104,36 113,65l-22 3c14,27 41,51 62,72 5,5 6,6 11,10 3,3 4,3 7,5l3 4c1,0 2,1 2,2 1,0 2,1 2,2l-44 11c0,15 2,11 4,25 0,0 0,0 0,0zm-14 555c0,0 0,2 -1,2l1 -2zm98 -216c-4,-4 3,2 0,0zm-20 -9c0,0 1,-2 1,-1 5,7 -2,2 -2,2 0,0 1,-1 1,-1zm-756 108c-17,11 -50,21 -76,21 8,-9 14,-11 23,-22 18,-21 35,-57 41,-86 -15,8 -16,14 -41,14 10,-15 21,-28 21,-54 -12,4 -26,20 -35,28 5,-35 58,-100 77,-126l-84 10c17,-11 67,-70 75,-89 -22,1 -88,15 -108,21 10,-10 23,-14 46,-37 21,-21 68,-60 77,-85 6,-15 14,-48 14,-65l-40 -5c16,-15 13,-8 50,-47 13,-14 32,-38 41,-55l-22 -2c11,-20 79,-45 106,-54 28,-10 16,-12 16,-12 -3,-10 -11,8 -1,-3 10,-7 68,-10 87,-13 39,-5 61,5 88,4 30,0 29,-11 92,-3 23,3 70,4 86,12 2,20 -13,-15 -8,8 35,17 108,33 127,60l-25 4c11,18 28,38 42,55l48 46 -36 4c0,85 32,90 51,112 14,16 23,26 39,41 16,15 33,23 45,35l-109 -21c33,48 67,78 75,90l-83 -11c18,31 65,78 77,124 -13,-9 -22,-22 -37,-26 4,30 10,33 22,54 -25,0 -26,-5 -40,-14 4,20 15,45 24,62 10,20 26,32 39,46 -28,-1 -53,-10 -74,-20 8,19 19,38 29,56 -36,-6 -42,-19 -65,-32 0,65 -9,2 4,89 -15,-3 -33,-19 -48,-28 0,36 -1,56 7,86 -15,-15 -39,-50 -54,-61 -3,5 0,-2 -5,9 -11,24 -8,47 -10,70 -8,-7 -15,-17 -24,-25 -14,-15 -14,-20 -26,-25 -8,13 -20,28 -21,48 -11,-8 -21,-20 -22,-37 -12,3 -19,12 -27,20 -6,7 -11,19 -20,24 -1,-14 -5,-18 -7,-29 -15,10 -53,61 -69,72 -9,-7 -54,-61 -61,-72l-6 12c-3,6 -3,7 -5,13 -18,-8 -9,-20 -44,-40 -6,18 -10,24 -22,37l-5 -14c-5,-14 -9,-22 -20,-34 -19,14 -32,39 -51,51 8,-31 -1,-54 -10,-81 -20,13 -36,46 -55,59 6,-31 8,-46 8,-83 -22,6 -32,26 -54,32 11,-17 17,-65 8,-90l-8 2c-8,4 -23,23 -56,27 7,-24 20,-36 29,-57z"/>
   <path class="fil3" d="M3207 1049c-2,13 -6,26 -9,41 -2,15 -4,30 -8,42 -19,7 -29,5 -51,3 -58,-5 -83,25 -92,-28 -3,-18 -9,-40 -9,-55 15,24 -4,34 32,68 3,-4 1,0 2,-6 3,-11 -2,3 2,-8 16,11 22,15 51,15 35,-1 27,-6 46,-19l0 18c37,-24 18,-46 36,-71zm-43 32c0,-25 -7,-28 15,-30 -1,17 -4,22 -15,30zm-87 0c-10,-12 -8,-13 -14,-29l16 0 -2 29zm44 -48c9,7 21,14 36,15 -6,10 -3,6 -19,6l-15 -1c-1,0 -2,0 -2,0 -42,1 -30,7 -36,-5 19,0 24,-6 36,-15zm118 8c0,-1 2,1 1,2 0,0 -1,-2 -1,-2l0 0zm-111 -40c22,-2 15,-9 28,-20 17,-14 8,4 30,-5 28,-13 9,-35 49,-34 4,24 -29,47 -47,58 15,1 29,-8 39,-19 14,-16 10,-27 20,-38 11,5 11,4 7,16 -8,20 -20,38 -38,48 20,-1 35,-16 42,-35 2,-4 2,-7 4,-11 0,-1 2,-4 2,-5 0,-2 1,-2 2,-3 -1,79 -59,103 -138,81l0 -33zm65 -202c7,-11 37,-48 54,-33 -3,14 -14,22 -23,33l-31 0zm-65 372c-1,9 -2,8 -3,18 8,-14 -2,-12 14,1 7,-16 5,-8 10,-9 16,-2 15,-25 19,18 29,-17 47,-35 56,-70 5,15 -1,11 7,10l3 -21c11,8 8,11 13,-1 0,-23 -1,-66 9,-82 12,-21 21,-39 24,-67 5,-60 -13,-39 15,-75 13,-18 16,-43 28,-58 18,9 27,21 42,29 -8,-32 -28,-47 -38,-73l33 0c-12,-20 -50,-27 -66,-80l37 1c-7,-9 -60,-46 -75,-55 -25,-15 -79,-21 -107,-7l58 1c-17,13 -32,9 -46,29 24,-4 55,-10 76,3 -9,27 -54,39 -69,61 27,-4 68,-20 95,-7 4,10 1,28 5,41 3,10 7,14 7,24 -1,37 -42,-7 -46,55 -12,-6 -18,-34 -21,-48 20,0 21,-4 31,-15 9,-9 16,-14 19,-28 -17,-22 -32,-14 -48,3 -13,13 -26,22 -42,33 9,7 12,7 15,22 -15,-6 -21,-6 -34,4 1,0 2,0 3,1l6 1c1,0 28,-1 38,16 -28,-1 -32,0 -50,11 5,10 11,12 20,20 19,18 3,23 23,42 5,5 15,12 15,21 0,19 -22,29 -36,32 -26,5 -20,26 -40,26 -20,0 -21,-2 -34,-17 -12,-13 -7,-6 -23,-9 -24,-5 -19,-20 -37,-29 1,14 5,17 15,25 26,22 24,-5 46,23 12,15 7,5 21,14 -2,26 4,41 -64,36 -100,-7 -64,-107 -80,-137 -8,-15 -39,-48 -39,-69 0,-53 10,-91 34,-129 31,-51 57,-56 118,-56l0 33c-10,8 -30,12 -37,23l4 2c8,-6 18,-7 29,-7 17,0 25,50 25,69l0 39c7,-4 18,-24 18,-32 0,-39 3,-80 -1,-119 -20,-15 -98,-21 -125,-7 -27,14 -63,41 -86,60l37 0c-19,57 -57,64 -67,80l33 0c-5,22 -31,43 -36,73 12,-9 26,-25 43,-29 8,26 24,63 43,76 -3,32 0,68 10,92 16,39 16,13 28,72 6,27 10,46 25,69 7,11 18,17 27,24 20,17 12,14 26,3 2,7 0,5 5,10 5,5 0,1 5,2l10 1c8,3 -6,11 10,2 6,-3 4,1 6,-12l-26 1c-6,-1 2,3 -5,-2 -6,-3 -4,-3 -9,-9 0,1 -1,2 -1,2l-3 4c-5,6 2,1 -6,5 -9,-13 -22,-17 -32,-30 -16,-19 -10,-22 -12,-35 -1,-12 -6,2 -8,-7 -1,-1 -2,0 -3,-1l-7 -64c15,7 19,5 25,21 35,96 -31,90 138,90 62,0 13,-105 69,-107 -1,16 -3,25 -4,42 -2,23 -8,20 -9,21 0,0 -1,0 -1,1l-4 0c7,16 0,14 -2,18 0,1 0,2 0,2 -10,26 -4,21 -34,42 -13,9 -9,5 -19,-4 -23,38 -8,-17 -24,18l-12 -11z"/>
   <path class="fil3" d="M3359 1084c0,-8 2,0 2,0 0,0 1,1 1,1 6,1 -3,12 -3,-1zm-29 -21c-2,16 1,-10 0,0zm-21 54c20,6 19,21 36,32 -3,-7 -14,-70 -15,-82 13,7 25,33 32,48l8 16c1,-40 9,-58 -7,-94 14,9 10,16 20,20 -3,-9 -3,-45 -5,-57 -3,-24 -7,-34 -11,-54 20,9 22,39 40,52 6,-21 6,-66 -3,-88 -2,-5 -12,-21 -13,-21l-2 4c9,16 8,40 6,64 -11,-15 -27,-21 -45,-30 -2,18 23,60 21,96 -7,-6 -13,-11 -21,-19 -8,-8 -12,-14 -22,-16 8,15 31,73 31,93l-26 -43c-8,-13 -16,-29 -28,-37 2,20 10,37 10,82 -9,-6 -11,-11 -21,-19 -4,-4 0,-2 -6,-4 6,12 3,37 1,51 -5,36 -3,18 -30,22 -3,16 -15,44 -22,56 18,-5 13,-16 36,-8 14,4 20,11 36,12 0,-17 2,-26 3,-40 1,-15 -3,-22 -3,-36z"/>
   <path class="fil3" d="M2921 1063c0,-1 1,0 1,1 -4,6 -1,-2 -2,-2 0,0 1,1 1,1zm19 130c27,-5 34,-19 52,-13 1,0 7,3 7,4l10 2c-33,-22 -4,-26 -62,-18l0 -73c-14,6 -17,17 -29,27 1,-34 16,-75 18,-88 -21,15 -35,42 -54,59l36 -101c-1,-1 -2,-2 -2,-3 0,-2 -2,-1 -3,-2l-38 36c0,-36 16,-65 23,-94 -25,4 -34,19 -48,29 0,-34 3,-42 7,-69 -32,24 -20,81 -16,111 15,-19 19,-42 41,-57 -12,34 -18,72 -18,116 11,-10 7,-13 18,-22 -9,51 -8,37 -7,94 11,-8 23,-53 44,-68l-15 86c14,-14 15,-23 33,-32 -1,28 -1,51 3,76z"/>
   <path class="fil3" d="M3273 589c5,19 39,43 57,55 17,10 59,32 86,26 -23,-9 -59,-18 -71,-34l20 -1c-12,-4 -17,-8 -27,-10 6,-12 -2,-2 12,-10l13 -9c-22,-1 -39,-6 -54,-13 7,-9 4,-7 19,-10 8,-1 17,-3 25,-4 14,-3 39,-8 52,-7 7,57 1,60 -20,82l16 2c17,-26 13,-44 13,-78 0,-31 -47,-15 -68,-10 -28,7 -50,13 -73,21z"/>
   <path class="fil3" d="M2832 592c0,29 0,42 14,66l16 -6c-27,-16 -23,-35 -23,-70 0,-17 21,-10 48,-5 19,4 36,7 53,12 -10,13 -34,15 -54,17 8,12 9,7 22,15 -8,8 -14,10 -26,11l19 4c-14,20 -47,22 -70,35 59,3 125,-52 145,-82 -41,-8 -84,-29 -130,-29 -13,0 -14,20 -14,32z"/>
   <path class="fil3" d="M3130 563l11 -1c2,-1 4,-3 7,-4 27,-15 92,-31 121,-30 -15,11 -21,13 -32,28 64,-11 3,-11 98,-11l-44 -18c13,-7 32,-6 50,-7 -22,-19 -89,-7 -100,-8 16,-8 48,-18 57,-28 -55,9 -90,24 -132,53 -13,9 -23,20 -36,26z"/>
   <path class="fil3" d="M3005 513c-41,-2 -57,-8 -99,4 10,5 0,1 23,4 11,1 13,3 26,3 -11,11 -18,8 -35,16 -1,0 -2,1 -2,1 -8,4 -3,1 -7,4 81,0 25,-6 98,11 -12,-20 -18,-14 -29,-29 42,1 113,20 133,40l4 -3c1,-1 0,0 -4,-3l-31 -23c-12,-9 -24,-16 -38,-24 -22,-11 -67,-29 -95,-28 9,6 19,9 27,12 11,5 20,7 29,15z"/>
   <path class="fil2" d="M3047 1107c9,53 34,23 92,28 22,2 32,4 51,-3 4,-12 6,-27 8,-42 3,-15 7,-28 9,-41 -18,25 1,47 -36,71l0 -18c-19,13 -11,18 -46,19 -29,0 -35,-4 -51,-15 -4,11 1,-3 -2,8 -1,6 1,2 -2,6 -36,-34 -17,-44 -32,-68 0,15 6,37 9,55z"/>
   <path class="fil3" d="M2994 766c27,-13 54,31 55,33 -23,0 -23,4 -36,-8 -18,-17 -14,-16 -19,-25zm-11 4c18,26 27,38 55,40 -20,9 -40,13 -57,38 55,-32 50,-36 115,-20l-4 -4c-18,-13 -32,-13 -50,-16 9,-3 9,-1 17,-3l15 -6c-28,-7 -31,-34 -69,-47 -14,7 -14,4 -22,18z"/>
   <path class="fil3" d="M3020 871c16,-6 22,-15 46,-13 -9,10 -18,12 -26,26 -7,12 -14,23 -16,36 5,-6 7,-12 10,-17 21,-38 33,-32 58,-39 -21,-32 -56,-17 -72,7z"/>
   <path class="fil2" d="M3193 799l31 0c9,-11 20,-19 23,-33 -17,-15 -47,22 -54,33z"/>
   <path class="fil2" d="M3049 799c-1,-2 -28,-46 -55,-33 5,9 1,8 19,25 13,12 13,8 36,8z"/>
   <path class="fil2" d="M3085 1048c6,12 -6,6 36,5 0,0 1,0 2,0l15 1c16,0 13,4 19,-6 -15,-1 -27,-8 -36,-15 -12,9 -17,15 -36,15z"/>
   <path class="fil3" d="M3055 1000c-16,-12 -20,-11 -33,-27 -11,-13 -12,-26 -24,-37 5,32 20,63 57,64z"/>
   <path class="fil3" d="M2981 938c-7,40 20,64 46,70 -11,-11 -21,-17 -30,-31 -7,-12 -9,-25 -16,-39z"/>
   <path class="fil3" d="M3060 935c28,-6 41,-2 61,8 21,-7 33,-18 63,-7l-5 -4c-4,-2 2,-1 -8,-3 -3,0 -14,0 -18,0 -14,0 -26,5 -32,5 -13,0 -46,-15 -61,1z"/>
   <path class="fil3" d="M3090 781l-13 -11c-11,-8 -9,-22 -45,-29 13,9 16,8 29,20 11,12 10,18 29,20z"/>
   <path class="fil3" d="M3153 781c32,-3 22,-28 58,-37 -1,0 -1,-5 -16,1 -7,4 -11,7 -15,11 -8,8 -2,8 -12,14 -10,8 -5,-1 -15,11z"/>
   <path class="fil2" d="M3164 1081c11,-8 14,-13 15,-30 -22,2 -15,5 -15,30z"/>
   <path class="fil2" d="M3077 1081l2 -29 -16 0c6,16 4,17 14,29z"/>
  </g>
  <path class="fil4" d="M2707 201c1,-17 9,-31 23,-40 12,-8 25,-10 39,-7 14,4 25,13 34,27 14,21 18,46 13,75 -6,29 -19,50 -40,64 -15,9 -31,13 -47,9 -16,-4 -29,-13 -39,-28 -11,-17 -15,-35 -12,-54 4,-19 13,-35 29,-46zm-1 14c-8,9 -13,19 -13,32 0,12 3,24 11,36 9,14 21,23 34,26 14,4 27,2 39,-6 15,-10 24,-25 26,-47 2,-21 -3,-41 -15,-59 -7,-11 -16,-18 -26,-21 -10,-4 -20,-3 -28,2 -8,6 -13,14 -15,24 -1,11 1,21 7,31 4,6 10,11 16,15 -7,3 -12,4 -15,3 -4,-1 -7,-4 -11,-10 -5,-7 -8,-16 -10,-26zm164 11c3,10 9,18 16,22 8,4 17,5 27,2 9,-3 16,-8 21,-16 5,-7 7,-15 4,-22 -2,-8 -13,-16 -32,-26l-13 -6c-18,-9 -28,-19 -31,-29 -4,-13 -3,-24 5,-35 7,-11 18,-19 33,-24 8,-2 15,-3 21,-2 5,1 9,3 10,7 1,4 1,9 -1,15 -9,-9 -20,-12 -33,-8 -8,3 -14,7 -18,14 -3,6 -4,13 -2,20 1,5 3,8 6,10 2,2 10,6 22,12l11 5c20,10 32,21 36,33 4,14 2,27 -6,39 -8,13 -20,21 -37,26 -11,4 -21,4 -30,1 -9,-3 -14,-9 -17,-16 -1,-6 1,-13 8,-22zm117 -33c2,11 6,19 13,24 7,6 16,7 26,6 10,-2 17,-6 23,-13 6,-6 9,-13 8,-21 -2,-8 -11,-18 -29,-30l-12 -8c-16,-11 -25,-22 -27,-33 -2,-13 1,-24 10,-34 8,-10 21,-16 36,-19 8,-1 15,-1 21,1 5,1 8,4 9,8 1,4 -1,9 -3,15 -8,-10 -18,-15 -31,-12 -9,1 -15,5 -20,10 -5,6 -7,13 -5,21 0,4 2,8 4,10 3,3 9,8 20,15l11 7c19,12 29,25 31,37 2,14 -2,27 -11,38 -10,11 -23,18 -41,21 -11,2 -21,0 -29,-4 -8,-4 -13,-10 -15,-18 -1,-6 3,-13 11,-21zm153 -29l-2 4c-10,15 -15,27 -16,36 0,3 1,5 3,8 -2,0 -6,1 -12,3 -2,1 -5,1 -7,1 -5,-1 -7,-3 -7,-8 1,-9 8,-23 21,-41l3 -5 -5 -1c-11,0 -20,1 -26,4 4,-12 13,-17 27,-16l13 2 3 -4c11,-15 29,-36 53,-61 8,-8 14,-14 18,-16 4,-2 11,-3 22,-4 -3,12 -5,23 -6,34 -2,27 -1,56 3,85 3,16 7,26 14,31 -7,6 -12,9 -17,9 -10,-1 -17,-20 -20,-57 -12,0 -23,0 -34,-1l-28 -3zm8 -11l21 2c14,1 24,1 32,1 -1,-24 -1,-44 0,-59l0 -8c-2,3 -7,9 -16,17 -15,17 -27,31 -34,43l-3 4zm139 -19c-1,-4 -1,-8 0,-11 3,-11 15,-19 36,-23 21,-4 42,-3 64,4 12,3 21,9 27,15 7,7 9,14 6,22 -4,14 -17,24 -41,30 11,6 18,14 23,22 5,8 6,17 4,25 -5,15 -17,26 -38,32 -20,6 -43,6 -67,-2 -18,-5 -25,-13 -22,-24 1,-3 4,-9 9,-18l34 -65c2,-6 4,-9 5,-12 1,-2 0,-4 -1,-7 10,0 16,0 20,1 4,1 5,4 4,9 0,1 -3,6 -8,16l-32 60c-4,7 -6,12 -7,14 -2,8 5,15 20,19 13,4 25,4 37,-1 11,-5 18,-12 21,-23 3,-8 2,-15 -2,-21 -4,-6 -11,-12 -22,-18 -5,1 -10,0 -15,-1 -2,-1 -4,-2 -6,-3 4,-7 8,-11 11,-12 4,-2 9,-2 15,0 2,1 4,1 6,2 17,-6 27,-14 30,-24 4,-11 -4,-20 -22,-25 -29,-9 -59,-2 -89,19zm176 118l-4 3c-15,9 -25,18 -29,25 -1,3 -2,5 -1,8 -2,0 -6,-1 -12,-2 -3,0 -5,-1 -7,-2 -4,-2 -5,-6 -3,-9 5,-9 17,-18 37,-29l5 -3 -4 -3c-10,-5 -18,-8 -25,-8 8,-9 18,-9 30,-2l11 6 5 -2c17,-9 42,-19 74,-32 11,-4 18,-7 23,-7 4,0 11,2 21,5 -7,10 -14,19 -19,29 -14,24 -25,50 -34,78 -4,16 -5,27 0,35 -9,2 -15,2 -19,0 -10,-6 -8,-26 5,-61 -10,-4 -20,-9 -30,-15l-24 -14zm12 -7l18 11c12,7 22,12 29,15 9,-23 17,-41 25,-54l4 -7c-4,2 -11,4 -23,9 -20,8 -37,16 -49,24l-4 2z"/>
  <path class="fil4" d="M2523 1298l-61 31c-7,4 -13,7 -17,10 -4,3 -6,8 -5,13 -7,-5 -11,-9 -14,-12 -4,-5 -4,-10 0,-13 5,-4 15,-9 30,-16l82 -35 7 -12c9,-12 13,-21 12,-27 8,3 13,6 16,10 2,3 2,7 -1,13 -3,6 -12,19 -26,39 -3,4 -5,8 -7,10l-3 5c-17,26 -23,43 -19,49 5,6 22,8 51,5 28,-4 49,-10 62,-18 6,4 11,8 13,10 4,6 3,10 -3,15 -2,1 -7,5 -17,11 -9,5 -16,9 -21,12l-57 36c-4,2 -7,5 -11,8 -10,8 -15,15 -15,22 -8,-3 -13,-6 -16,-10 -5,-6 -1,-15 12,-25 5,-4 12,-9 20,-14l72 -45c-24,8 -47,13 -68,14 -21,0 -35,-3 -41,-11 -5,-6 -5,-16 -1,-29 5,-14 13,-29 26,-46zm81 161l-4 2c-17,6 -28,13 -34,20 -1,2 -2,4 -2,7 -2,0 -6,-2 -11,-4 -3,-1 -5,-2 -7,-4 -4,-3 -4,-6 -1,-10 6,-7 20,-14 42,-21l6 -2 -4 -3c-9,-7 -16,-12 -23,-13 10,-7 20,-5 30,4l10 8 5 -1c18,-5 44,-11 79,-17 11,-2 19,-3 23,-2 5,1 11,4 20,9 -9,8 -17,16 -24,24 -18,21 -34,45 -48,71 -8,14 -10,25 -8,33 -9,1 -15,0 -19,-3 -8,-7 -2,-27 18,-58 -9,-7 -18,-14 -27,-21l-21 -19zm14 -4l15 14c11,9 19,16 25,20 14,-20 25,-36 36,-48l5 -6c-4,1 -12,2 -24,5 -22,3 -40,8 -53,13l-4 2zm100 35c0,-4 0,-8 3,-12 5,-10 19,-14 40,-13 22,1 42,7 61,18 29,16 38,34 27,53 -5,9 -12,14 -22,17 -10,3 -25,3 -44,1 -5,40 -2,63 8,69 6,3 14,3 24,-1 0,1 -1,2 -1,3 -3,5 -9,8 -18,10 -9,2 -16,2 -21,-1 -14,-8 -18,-36 -12,-82 -4,-1 -7,-2 -9,-4 -1,0 -2,-1 -3,-2 8,-10 17,-13 26,-7 2,1 4,2 6,4 23,5 39,0 47,-15 3,-6 3,-12 0,-18 -4,-7 -10,-13 -18,-18 -15,-8 -31,-13 -48,-13 -18,-1 -33,3 -46,11zm-21 110c-8,0 -14,-2 -19,-4 -3,-2 -4,-4 -2,-7 1,-1 3,-4 8,-10l66 -75c4,-5 6,-8 8,-10 1,-2 1,-5 1,-7 9,1 16,3 19,5 3,2 4,5 1,9 0,1 -4,6 -11,14l-61 70c-4,5 -7,8 -8,10 -1,2 -1,3 -2,5zm243 -52l-59 102c-3,5 -5,9 -5,11 -1,2 -1,4 -1,6 -8,1 -14,1 -20,-1 -3,-1 -4,-3 -3,-6 0,-1 2,-5 6,-11l62 -108 -14 -4c-15,-5 -28,-8 -40,-9 5,-8 9,-12 14,-13 4,-1 12,0 24,5l65 22c18,6 32,3 42,-7 1,4 1,8 0,10 -3,8 -10,13 -22,15 -8,1 -20,-2 -37,-8l-12 -4zm117 17l-47 121c14,0 23,1 28,2 9,2 12,8 10,20 -5,-2 -10,-4 -15,-5 -5,-1 -12,-1 -19,-2l-24 -1c-8,0 -14,-1 -17,-1 -6,-1 -10,-3 -12,-6 -1,-3 -2,-8 -1,-16 4,4 9,6 14,7 3,0 8,1 14,1l47 -120c-7,0 -14,-1 -19,-2 -9,-1 -13,-8 -11,-18 2,2 5,3 9,4 5,1 12,1 22,1l16 0c12,0 20,0 26,1 9,2 13,9 13,21 -4,-2 -8,-4 -12,-5 -5,-1 -11,-1 -17,-1 -1,0 -3,0 -5,-1zm50 92l-2 3c-9,17 -13,29 -12,38 0,2 1,5 3,7 -2,1 -5,2 -11,5 -3,1 -5,1 -8,1 -4,0 -7,-2 -7,-7 0,-9 5,-23 17,-43l3 -5 -5 0c-12,0 -20,2 -26,6 3,-12 11,-18 25,-18l13 0 2 -4c11,-17 27,-39 48,-66 7,-9 12,-15 16,-18 4,-2 11,-4 21,-6 -2,12 -2,24 -2,34 1,28 4,56 12,85 3,15 9,25 16,30 -6,6 -11,9 -16,9 -10,1 -19,-18 -26,-54 -11,1 -22,2 -34,2l-27 1zm7 -13l20 0c14,0 25,-1 32,-2 -3,-24 -5,-43 -6,-59l0 -7c-2,2 -7,9 -14,18 -14,18 -24,33 -30,46l-2 4zm227 14c-1,7 -3,12 -5,16 -3,3 -10,7 -22,12 -12,4 -24,8 -38,10 -21,4 -33,-2 -36,-16 0,-4 0,-12 0,-24l2 -102c0,-6 0,-10 0,-12 -1,-2 -2,-4 -4,-6 8,-5 14,-8 18,-8 4,-1 6,1 7,6 0,1 0,7 0,18l-2 91c0,13 0,22 1,27 1,8 11,11 30,7 16,-2 33,-9 49,-19zm93 -66l0 5c-1,18 0,31 3,39 1,2 3,4 6,5 -1,2 -4,4 -8,9 -2,1 -4,3 -7,4 -4,2 -7,1 -9,-3 -4,-9 -4,-25 -2,-47l1 -6 -5 2c-10,5 -17,10 -21,16 -2,-12 4,-21 16,-27l12 -5 1 -5c3,-19 9,-45 18,-79 3,-11 5,-18 8,-22 2,-3 8,-8 17,-14 3,12 7,22 11,32 11,25 26,50 44,73 9,13 19,20 27,21 -3,9 -7,14 -11,16 -10,4 -25,-9 -45,-40 -10,5 -20,11 -30,15l-26 11zm2 -14l19 -8c12,-6 22,-10 28,-14 -12,-21 -22,-38 -28,-52l-3 -7c-1,3 -3,11 -6,23 -6,21 -9,39 -10,54l0 4zm74 -76c-5,-1 -8,-3 -10,-7 -7,-9 -5,-23 5,-42 10,-19 23,-35 41,-48 28,-19 48,-20 60,-3 6,9 8,18 7,28 -2,10 -8,24 -18,41 34,20 57,27 66,21 5,-4 8,-11 9,-23 1,2 2,2 2,3 4,5 4,11 2,20 -2,9 -5,16 -10,19 -13,9 -39,2 -79,-23 -3,3 -5,5 -7,7 -2,0 -3,1 -4,1 -5,-12 -4,-21 4,-27 2,-1 4,-2 7,-3 14,-19 16,-36 6,-50 -4,-5 -9,-7 -17,-7 -7,0 -15,3 -23,9 -14,10 -24,23 -32,38 -8,16 -11,31 -9,46zm91 66c-3,7 -7,12 -12,15 -3,2 -5,2 -7,-1 -1,-1 -3,-5 -5,-11l-42 -92c-2,-5 -4,-9 -5,-11 -2,-2 -4,-3 -6,-4 5,-8 9,-13 12,-15 4,-2 7,-1 10,3 0,0 3,6 7,16l38 84c3,6 5,10 6,12 1,1 3,2 4,4zm55 -242l68 96c4,5 6,8 8,10 1,1 3,2 5,3 -2,7 -5,13 -9,17 -3,3 -5,3 -7,1 -1,-1 -4,-4 -8,-10l-71 -101 -10 10c-11,11 -20,22 -25,33 -5,-8 -7,-14 -6,-18 1,-4 5,-11 14,-21l48 -49c13,-14 16,-27 11,-41 4,1 7,3 9,4 6,6 8,15 4,27 -2,7 -10,17 -22,30l-9 9zm108 24c9,6 17,9 26,7 9,-1 16,-6 22,-15 6,-7 8,-16 8,-25 -1,-9 -4,-15 -11,-20 -6,-5 -20,-5 -41,-1l-15 3c-19,4 -33,3 -42,-3 -11,-8 -16,-18 -17,-31 -1,-14 3,-27 12,-39 5,-7 10,-12 15,-15 5,-2 9,-3 12,0 4,2 6,6 9,12 -13,-1 -23,3 -31,14 -5,7 -7,14 -6,21 1,8 4,14 11,18 4,3 7,5 11,5 3,0 11,-2 24,-4l12 -3c22,-5 38,-3 49,4 11,8 18,20 19,34 1,15 -4,30 -14,44 -6,9 -14,15 -23,18 -9,3 -16,3 -23,-2 -5,-3 -7,-11 -7,-22z"/>
  <g id="_1740072424992">
   <path class="fil5" d="M2336 912c1,-2 4,-4 6,0l-6 0zm18 -2l-5 0 -1 -4 3 -4 8 -1 4 -1c2,6 2,4 -1,8 -4,3 -3,2 -8,2zm-12 -28l10 2c-4,4 -5,1 -10,4 4,6 5,1 11,6l-4 1 -27 3c2,8 7,5 11,12 -3,9 -9,3 -16,8 1,5 1,3 5,7 5,2 6,0 9,5l-4 6 3 0c15,-1 -1,-8 11,-11 2,4 1,1 1,6l2 6c9,1 5,-3 8,-9 4,4 3,7 9,3 0,-5 0,-3 -4,-8l-5 -2 11 -4 3 12 1 2 -7 8 9 -4 17 14c10,2 8,5 19,3l4 -4c-1,-6 -2,-8 -6,-12 -4,-3 -8,-9 -13,-9l6 12 1 2 -4 0c-13,-12 -17,-4 -7,-22l-3 -3c-5,2 -6,4 -7,-1 11,-4 20,5 29,-1 0,-14 -22,-8 -31,-7 -4,-2 -6,-4 -6,-8 14,-5 31,4 36,-2 -4,-12 -19,-6 -29,-7 -3,3 -8,4 -12,2 2,-5 5,-4 10,-4l1 1 0 -6 -11 -3 6 -1 4 0c4,-3 5,-2 7,-7l-5 -5c-4,-3 2,-1 0,-6 -3,-5 -7,-4 -10,-1 -4,4 -2,6 -9,5 -7,-1 -6,-4 -14,-2 0,7 2,3 3,8l-9 3c2,5 2,6 6,8zm-17 56l1 0 -2 -2 1 2z"/>
   <path class="fil5" d="M2349 811l3 0 0 8c-1,0 -1,0 -1,0 -1,1 -1,0 -2,0 0,0 0,0 -1,-1l-1 -3 0 -1 0 -3 2 0zm13 5c-2,-7 4,-8 10,-7 -1,5 -5,8 -10,7zm-15 14l2 -3 5 4c4,-4 1,-5 9,-6 6,-2 9,0 14,-3l-5 -5c6,-5 12,-4 19,-5 9,-3 0,-11 -5,-12 -9,-3 -13,1 -21,0 -4,-5 -5,-10 -13,-8l-2 11c-11,5 -12,1 -20,3 -2,7 1,8 5,14 4,7 2,8 12,10z"/>
   <path class="fil5" d="M2347 837c-2,17 36,22 48,12 1,-8 -2,-12 -10,-14 -4,6 1,10 -16,8 -7,-1 -17,-6 -22,-6z"/>
   <path class="fil5" d="M2331 837l-1 3c1,2 2,2 -1,2 -3,6 -3,9 2,14 6,1 7,-1 11,-6 1,-7 1,-7 -3,-13l-2 -2 -3 0 -3 2z"/>
   <path class="fil6" d="M2374 907c9,-1 31,-7 31,7 -9,6 -18,-3 -29,1 1,5 2,3 7,1l3 3 0 -3c7,1 15,3 21,-1 3,-15 -25,-13 -33,-8z"/>
   <path class="fil7" d="M2347 830l8 3c4,-4 2,-6 9,-7 6,-1 10,1 14,-4 0,-5 -1,-2 -4,-5l17 -5c-7,1 -13,0 -19,5l5 5c-5,3 -8,1 -14,3 -8,1 -5,2 -9,6l-5 -4 -2 3z"/>
   <path class="fil5" d="M2383 882c5,3 11,4 15,1 0,-8 -13,-10 -15,-1z"/>
   <path class="fil5" d="M2386 822c-1,4 -1,5 2,8 4,-1 7,-1 9,-5 -2,-6 -6,-6 -11,-3z"/>
   <polygon class="fil8" points="2351,902 2349,910 2354,910 2362,908 2362,903 2359,901 "/>
   <path class="fil5" d="M2369 831l-5 0c-1,7 3,7 9,7 1,-6 2,-5 0,-10l-4 3z"/>
   <path class="fil9" d="M2322 925c-4,-4 -4,-2 -5,-7 7,-5 13,1 16,-8 -4,-7 -9,-4 -11,-12l-2 2c5,6 9,5 11,11 -5,6 -8,1 -15,5 -1,7 0,7 6,9z"/>
   <path class="fil7" d="M2342 931c-1,5 -2,4 2,8 7,0 6,-1 9,-7 5,2 3,5 9,1 2,-7 1,-7 -5,-10 4,5 4,3 4,8 -6,4 -5,1 -9,-3 -3,6 1,10 -8,9l-2 -6z"/>
   <path class="fil9" d="M2366 929c-3,6 -7,5 -7,11 8,2 4,-1 10,-3 8,3 10,8 17,12l-17 -14 -9 4 7 -8 -1 -2z"/>
   <path class="fil8" d="M2362 816c5,1 9,-2 10,-7 -6,-1 -12,0 -10,7z"/>
   <path class="fil9" d="M2349 895l4 -1c-6,-5 -7,0 -11,-6 5,-3 6,0 10,-4l-10 -2 7 3c-4,-1 -5,-1 -8,2 0,6 3,4 8,8z"/>
   <path class="fil6" d="M2347 815l1 3 4 1 0 -8 -3 0c-3,-1 -2,-2 -2,3l0 1z"/>
   <path class="fil6" d="M2374 889l3 -3c-2,-6 -3,-5 -8,-7l-6 1 11 3 0 6z"/>
   <path class="fil9" d="M2373 888c-5,0 -8,-1 -10,4 4,2 9,1 12,-2l-10 1 8 -3z"/>
   <path class="fil7" d="M2362 908l-8 2 -5 0 2 -8 -3 4 1 4 5 0c5,0 4,1 8,-2 3,-4 3,-2 1,-8l-4 1 3 2 0 5z"/>
   <path class="fil9" d="M2405 952l6 -2 -4 -13 -4 -1c4,4 5,6 6,12l-4 4z"/>
   <path class="fil9" d="M2331 837l-1 3c-2,0 -1,-1 -1,2 3,0 2,0 1,-2l1 -3 3 -2 3 0 2 2c4,6 4,6 3,13l3 -5c-2,-5 -2,-4 -6,-8 0,-3 1,-3 -2,-2l-3 0 -3 2z"/>
   <path class="fil7" d="M2324 935l0 1c0,1 -1,1 -1,1 1,6 -4,-2 2,1l-1 -2 2 2 4 -2 -3 0 4 -6 -7 5z"/>
   <path class="fil9" d="M2373 879c5,-2 8,-2 8,-8l-6 -4 5 5c-2,5 -3,4 -7,7z"/>
   <path class="fil7" d="M2373 838l4 -9 -4 -1 -4 3 4 -3c2,5 1,4 0,10z"/>
   <path class="fil9" d="M2336 912l6 0c-2,-4 -5,-2 -6,0z"/>
   <path class="fil6" d="M2326 938l-1 0c-6,-3 -1,5 -2,-1 0,0 1,0 1,-1l0 -1 -3 3 5 0z"/>
   <path class="fil7" d="M2352 819l-4 -1 -1 -3 1 3c1,1 1,1 1,1 1,0 1,1 2,0 0,0 0,0 1,0l0 -8 0 8z"/>
   <path class="fil7" d="M2347 814c0,-5 -1,-4 2,-3l-2 0 0 3z"/>
   <path class="fil7" d="M2393 941l4 0 -1 -2c0,3 1,2 -3,2z"/>
  </g>
  <g id="_1740072417248">
   <path class="fil4" d="M2393 1131c5,-4 11,-4 13,2 -5,5 -11,5 -13,-2zm-8 -11c2,-4 15,-6 19,-6 1,7 -14,7 -19,6zm15 -14l-2 -1c-5,3 -6,3 -12,2l1 -3 4 -1 9 -2 6 0 -2 3 -4 2zm-16 -74c2,5 2,3 1,9l-9 2 -20 0 -1 5 6 5c5,2 6,4 10,6 6,2 9,1 14,2 1,6 0,13 -2,18l-4 4 2 3c12,4 11,3 22,0l3 0 -1 6 -5 1 -7 0c-5,3 -3,2 -9,3l-12 -14 -4 2c2,15 -2,38 9,47l6 2c0,6 -1,5 -7,6 -8,2 -32,4 -36,7 1,6 11,12 17,13l11 0c0,5 -1,4 -4,7l0 0 -2 5 4 1c19,-6 26,-20 35,-23 18,-5 41,7 50,-1 4,-16 -11,-16 -21,-17 -5,4 -5,4 -10,2l2 -5c0,-8 1,-14 1,-22 0,-14 9,-27 -7,-35 -7,-3 -11,0 -18,2l-3 1 1 -4c3,-5 6,-14 9,-17l8 -3c9,-1 21,-2 24,-12 -8,-17 -21,0 -34,-2 -3,-8 -5,-22 -18,-18l-1 14z"/>
   <path class="fil4" d="M2406 1154c-3,12 23,25 33,23 4,-11 -2,-14 -10,-19 -7,-3 -16,-8 -23,-4z"/>
   <path class="fil4" d="M2385 1120c5,1 20,1 19,-6 -4,0 -17,2 -19,6z"/>
   <path class="fil4" d="M2391 1103c-2,1 2,1 -4,1 5,3 5,2 11,1l2 1 4 -2 0 -2 -4 -1 -9 2z"/>
   <path class="fil4" d="M2395 1131c4,-1 6,-2 9,2 -4,5 -7,2 -9,-2zm-2 0c2,7 8,7 13,2 -2,-6 -8,-6 -13,-2z"/>
   <path class="fil4" d="M2404 1133c-3,-4 -5,-3 -9,-2 2,4 5,7 9,2z"/>
   <path class="fil4" d="M2372 1082l12 14c6,-1 4,0 9,-3l-8 1 -13 -12zm11 -3l-6 3 4 4 -2 -3 4 -4z"/>
   <path class="fil4" d="M2398 1105c-6,1 -6,2 -11,-1 6,0 2,0 4,-1l-4 1 -1 3c6,1 7,1 12,-2z"/>
   <path class="fil4" d="M2376 1139c6,-1 7,0 7,-6l-6 -2 5 4 -6 4z"/>
   <path class="fil4" d="M2364 1166c3,-3 4,-2 4,-7l-11 0 9 2 -2 5z"/>
   <path class="fil4" d="M2376 1043l9 -2c1,-6 1,-4 -1,-9l0 7 -8 4z"/>
   <path class="fil4" d="M2430 1131l-8 1 0 -4 -2 5c5,2 5,2 10,-2z"/>
   <polygon class="fil4" points="2400,1093 2405,1092 2406,1086 2403,1086 2405,1089 "/>
   <path class="fil4" d="M2361 1053l-6 -5 1 -5 -3 4c3,4 3,4 8,6z"/>
   <path class="fil4" d="M2366 1172l-4 -1 2 -5c-4,4 -4,2 -4,7l6 -1z"/>
   <polygon class="fil4" points="2404,1104 2400,1106 2404,1104 2406,1101 2400,1101 2404,1102 "/>
   <polygon class="fil4" points="2398,1073 2396,1070 2395,1074 "/>
   <polygon class="fil4" points="2405,1053 2413,1050 "/>
  </g>
  <g id="_1740114464128">
   <path class="fil5" d="M2454 432l-1 5 3 2 7 0c4,-3 7,-4 10,-8 3,-3 3,-6 8,-7 0,5 -2,18 -4,21 0,10 -3,33 5,39 15,9 13,-18 13,-25 -1,-19 -2,-19 -7,-37 -6,-18 30,-37 13,-62 -10,-14 -15,8 -17,15 -6,16 -20,42 -30,57z"/>
   <path class="fil5" d="M2562 452l0 3 2 1c6,-3 9,-4 11,-10 0,-19 -24,-12 -36,-10 -9,2 -34,7 -40,13 1,12 19,12 29,8 8,-4 26,-11 34,-5z"/>
   <path class="fil5" d="M2519 403l-7 3 -1 1 0 2 2 2 0 2 1 2 2 1c2,0 2,-1 2,1 2,0 1,-1 1,2l14 0 16 -3c0,-3 0,-2 3,-1l6 -2 2 -2 1 -2 0 -3 -1 -2c-2,1 -1,1 -1,-2 -2,1 -2,1 -1,-1l-2 -1c-3,1 -2,1 -2,-1 -3,0 -2,1 -2,-2l-1 1 -32 5z"/>
   <path class="fil10" d="M2477 445c2,-3 4,-16 4,-21 -5,1 -5,4 -8,7 -3,4 -6,5 -10,8 10,-4 12,-10 15,-11l-1 17z"/>
   <path class="fil11" d="M2511 407l0 2c0,2 -1,2 2,2l0 2 1 2c0,2 0,2 2,1 0,2 0,2 2,1 -1,2 -1,2 1,2 6,3 9,3 14,0l-14 0c0,-3 1,-2 -1,-2 0,-2 0,-1 -2,-1l-2 -1 -1 -2 0 -2 -2 -2 0 -2 1 -1 7 -3 -7 3c-2,-1 -2,-1 -1,1z"/>
   <path class="fil11" d="M2552 397c0,3 -1,2 2,2 0,2 -1,2 2,1l2 1c-1,2 -1,2 1,1 0,3 -1,3 1,2l1 2 0 3 -1 2 -2 2 -6 2c-3,-1 -3,-2 -3,1l3 -1 6 -2 2 -2c3,1 2,1 1,-2l0 -3c1,-2 2,-2 -1,-2 1,-2 1,-2 -1,-2 1,-2 1,-2 -1,-1l-2 -1c0,-2 0,-2 -2,-1 0,-3 1,-2 -2,-2l-1 1 1 -1z"/>
   <path class="fil11" d="M2456 439l-3 -2 1 -5c-3,4 -2,1 -2,7l4 0z"/>
   <polygon class="fil12" points="2564,456 2562,455 2562,452 2560,457 "/>
  </g>
  <g id="_1740114456000">
   <path class="fil5" d="M3858 625c-4,-2 -4,-3 -4,-7 5,-2 5,-2 10,-1l-2 8 -4 0zm-22 -56c0,5 1,3 -2,3 1,3 2,2 -1,2 0,4 1,2 -2,2 1,3 1,2 -1,2 0,2 1,2 -2,1 1,3 2,2 -1,2 1,2 1,2 -1,1l-4 4c0,3 1,2 -2,1 1,3 1,2 -2,1 1,3 1,2 -2,2l1 3c11,2 16,-3 23,-4 0,3 -3,6 -6,8 -6,0 -6,-3 -13,0l2 6c2,-1 2,-1 1,1l0 2c1,3 1,2 -1,2 0,2 1,2 -2,1 0,2 1,2 -2,1 1,3 1,2 -2,2 -5,6 -23,12 -25,18 6,8 18,1 26,-3 4,-4 12,-10 18,-10 6,6 3,10 8,16l7 1c14,-3 5,3 18,2 5,-4 16,-21 13,-26 -5,-12 -22,-2 -33,-1 -3,2 -3,3 -7,2l5 -3 10 -13 11 -13 0 0 1 -3 1 -7c-3,1 -2,1 -2,-2 -2,1 -2,2 -1,-1 -11,-1 -7,1 -14,2 -6,1 -9,-2 -16,-3 1,2 1,2 -1,1z"/>
   <path class="fil5" d="M3851 645l-3 0 -1 10 0 3c0,2 0,2 -2,1 -4,3 -4,2 -9,2l-13 1 -9 2c0,5 1,4 3,8l9 4c-3,6 -19,19 -25,23l-3 2 4 1c13,0 18,-6 29,-11 7,-8 11,-12 16,-22l6 5 16 14c5,4 9,9 16,9 4,0 16,-3 18,-5 -3,-5 -35,-16 -43,-24 8,-5 24,2 27,-9 -13,-9 -11,1 -19,-4l7 -4c2,-6 -1,-8 -6,-10 -6,2 -7,7 -13,11l-5 -7z"/>
   <path class="fil5" d="M3853 720c-5,2 -4,2 -10,0l2 -4c4,-3 5,-2 9,-1l2 3 -3 2zm-24 -4l6 10 5 1c7,-3 8,-4 14,0 9,-1 9,-3 14,-9 0,-3 -1,-2 2,-2l0 -3 -1 -2 -2 -1 -12 -1 -27 1 1 6z"/>
   <path class="fil6" d="M3836 569c-2,1 -2,-3 -2,3 -3,-1 -2,-1 -1,2 -2,1 -1,-3 -2,2 -2,0 -2,-1 -1,2 -3,-1 -2,-1 -2,1 -2,0 -2,-1 -1,2 -2,-1 -2,-1 -1,1l-4 4c-2,0 -2,-1 -2,1 -3,-1 -3,-1 -2,1 -3,-1 -2,-1 -2,2l-3 3c4,3 5,2 6,4 0,0 1,3 4,6 -1,3 -2,2 1,1l0 2 -1 2 -2 1c-3,-1 -2,-2 -2,1 -2,-1 -2,-1 -2,2 3,0 3,1 2,-2 3,1 2,1 2,-1 3,1 2,1 2,-1 2,0 2,1 1,-2l0 -2c1,-2 1,-2 -1,-1l-2 -6c7,-3 7,0 13,0 3,-2 6,-5 6,-8 -7,1 -12,6 -23,4l-1 -3c3,0 3,1 2,-2 3,1 3,2 2,-1 3,1 2,2 2,-1l4 -4c2,1 2,1 1,-1 3,0 2,1 1,-2 3,1 2,1 2,-1 2,0 2,1 1,-2 3,0 2,2 2,-2 3,0 2,1 1,-2 3,0 2,2 2,-3 2,1 2,1 1,-1 7,1 10,4 16,3 7,-1 3,-3 14,-2 -1,3 -1,2 1,1 0,3 -1,3 2,2l-1 7 -1 3c4,0 3,0 1,-3l2 -3 -1 -4c1,-3 1,-2 -2,-2 1,-2 2,-2 -1,-1 -10,-7 -10,5 -26,-3l-4 2c-3,-1 -2,-2 -1,1z"/>
   <path class="fil5" d="M3845 686l-1 4 -6 2 -4 1 4 3 17 -1c5,-1 8,0 11,-5l-4 -1 -6 0 -2 -4 -1 -2c-3,0 -3,1 -3,-1l-5 0 0 4z"/>
   <path class="fil5" d="M3841 699l0 2 5 2 -3 1 -3 0 1 3c3,0 2,-1 2,1 7,0 9,1 15,-2 -1,-6 -1,-1 -1,-7l-3 -1 -3 0 -10 1z"/>
   <path class="fil5" d="M3830 657l2 1 8 0 2 -5 -3 -2c-3,1 -2,1 -2,-2 -5,-3 -6,-3 -11,-2 -1,5 1,7 4,10z"/>
   <path class="fil8" d="M3858 625l4 0 2 -8c-5,-1 -5,-1 -10,1 0,4 0,5 4,7z"/>
   <path class="fil13" d="M3818 627l17 -9 7 17c6,1 5,2 9,-1l-7 -1c-5,-6 -2,-10 -8,-16 -6,0 -14,6 -18,10z"/>
   <path class="fil13" d="M3847 655l0 3 -2 1 -3 0 0 -6c-2,-4 0,-1 -3,-2 1,-3 1,-2 -2,-2 0,3 -1,3 2,2l3 2 -2 5 -8 0 -2 -1c0,3 -1,2 2,1l4 3c5,0 5,1 9,-2 2,1 2,1 2,-1l0 -3 1 -10 3 0 -2 -1 -1 1c-3,5 -2,6 -1,10z"/>
   <path class="fil6" d="M3838 696l1 3 0 2 1 6 3 1c0,-2 1,-1 -2,-1l-1 0 0 -3c-1,-3 -1,-1 3,0 -1,-3 1,-1 -2,-3l-2 0 0 -2 2 0 10 -1 3 0 1 -3 -17 1z"/>
   <path class="fil13" d="M3831 691l10 -9 4 4 -1 4 -6 2 6 -2 1 -4 0 -4 -2 -3c3,-4 4,-4 4,-10 -5,10 -9,14 -16,22z"/>
   <path class="fil13" d="M3867 710l2 1 1 2 0 3c-3,0 -2,-1 -2,2 -5,6 -5,8 -14,9l5 1c4,-2 8,-6 9,-10 3,0 2,1 2,-2l0 -3c1,-3 1,-2 -1,-2 0,-2 0,-1 -2,-1 -4,-5 -7,-4 -12,-1l12 1z"/>
   <path class="fil13" d="M3875 651l-7 4c8,5 6,-5 19,4 -4,-7 -5,-6 -13,-5l1 -3z"/>
   <polygon class="fil8" points="3853,720 3854,715 3845,716 3846,720 "/>
   <path class="fil13" d="M3845 716l9 -1 -1 5 -7 0 -1 -4zm8 4l3 -2 -2 -3c-4,-1 -5,-2 -9,1l-2 4c6,2 5,2 10,0z"/>
   <path class="fil13" d="M3817 672c-2,-4 -3,-3 -3,-8l9 -2 -11 1c0,6 1,6 5,9z"/>
   <path class="fil13" d="M3853 683l1 2 2 4 6 0 -8 -4c1,-3 1,-2 -1,-2 0,-3 0,-2 -3,-1 0,2 0,1 3,1z"/>
   <path class="fil13" d="M3840 727l-5 -1 -6 -10c2,4 3,9 6,13l5 -2z"/>
   <path class="fil13" d="M3869 688l-16 -14c2,4 12,12 16,14z"/>
   <path class="fil13" d="M3802 702l-4 -1 3 -2 -7 3c5,3 3,2 8,0z"/>
   <path class="fil13" d="M3839 699l0 2 2 0c3,2 1,0 2,3 -4,-1 -4,-3 -3,0l0 3 1 0 -1 -3 3 0 3 -1 -5 -2 0 -2 10 -1 -10 1 -2 0z"/>
   <path class="fil6" d="M3847 608l-5 3c4,1 4,0 7,-2l-4 1 2 -2z"/>
   <polygon class="fil13" points="3857,595 3868,582 "/>
  </g>
  <g id="_1740114500864">
   <path class="fil5" d="M3826 1133l7 4 -4 6c-4,12 -13,13 -18,22l-8 6 3 3c8,-1 11,-1 18,-5 9,-9 14,-13 23,-23l7 -13c3,-6 3,-6 9,-8l6 -3c4,-3 4,-3 9,-2 1,5 1,3 -1,8 -6,13 -3,26 -20,29l1 5 0 0c9,4 8,8 20,5l12 -17 5 -16c3,-7 4,-5 2,-13 -5,-12 -11,-16 -24,-13 -27,8 -19,3 -29,1 -4,6 3,7 -12,9 -6,1 -14,1 -19,2 0,5 8,12 13,13z"/>
   <path class="fil5" d="M3843 1098l-1 0 -4 1 -2 -5 2 -3 6 -2 1 5 0 2c1,3 1,2 -2,2zm-18 -28c-5,-1 -5,-2 -10,0 0,3 5,15 6,20 1,7 1,12 9,15 10,3 32,-3 42,-6 2,-6 10,-11 15,-15 4,-7 11,-7 5,-17 -3,-5 -9,-10 -14,-11 0,2 0,1 -2,1 0,2 1,2 -2,1 1,3 1,2 -1,1 -4,4 -12,3 -16,2l-2 -4c-3,0 -2,1 -1,-2 -3,0 -2,1 -2,-1l-3 -3 -7 0 -1 4 1 2c2,-1 1,-1 1,2l4 5 -9 1 -7 4 7 6 0 0 3 2 2 0c3,0 2,-1 1,2l0 4c1,2 1,1 -2,1l-4 0c-3,1 -2,1 -1,-2l-1 -5 -11 -7zm26 11l-2 -3 2 -2 3 -2 2 0 3 -2c5,-1 9,-4 13,-4 2,7 -2,13 -5,19 -4,9 -6,11 -16,9 -3,-13 9,-6 14,-15 -5,-3 -9,-1 -14,0z"/>
   <path class="fil5" d="M3816 1039c10,11 10,11 25,4 12,0 14,-8 23,-7 -1,6 -4,3 -4,9 6,1 17,-4 25,-5l2 -1 1 -2 0 -6c-3,1 -2,1 -1,-2 -2,0 -2,0 -1,-2 -3,1 -2,1 -2,-1 -3,1 -2,1 -2,-1 -2,0 -2,1 -2,-1l-12 -2 -52 13 0 4z"/>
   <path class="fil8" d="M3859 1072c0,3 0,2 -3,2l-2 0c-1,3 1,2 -3,2l0 5c5,-1 9,-3 14,0 -5,9 -17,2 -14,15 10,2 12,0 16,-9 3,-6 7,-12 5,-19 -4,0 -8,3 -13,4z"/>
   <path class="fil14" d="M3825 1070l11 7 1 5c-1,3 -2,3 1,2l4 0c3,0 3,1 2,-1l0 -4c1,-3 2,-2 -1,-2l-2 0 -3 -2c0,3 -1,3 3,2l2 0c0,2 -1,2 1,2l0 4 -2 1 -4 0 -1 -2 -1 -5 2 -2 -7 -6 7 -4c-13,0 -5,3 -13,5z"/>
   <path class="fil14" d="M3841 1055l1 2c-1,2 -2,2 1,2 0,-3 1,-3 -1,-2l-1 -2 1 -4 7 0 3 3c0,2 -1,1 2,1 -1,3 -2,2 1,2l2 4c4,1 12,2 16,-2 2,1 2,2 1,-1 3,1 2,1 2,-1 2,0 2,1 2,-1 -3,-1 -2,-1 -2,1 -2,0 -2,-1 -2,1l-1 1 -16 2 -2 -4c0,-3 1,-3 -1,-2 0,-3 1,-2 -2,-1l-3 -3c-6,-3 -3,-3 -9,-1l1 5z"/>
   <path class="fil14" d="M3858 1162c6,6 10,9 19,8 6,-4 11,-14 13,-20l-12 17c-12,3 -11,-1 -20,-5z"/>
   <path class="fil8" d="M3836 1077l1 5 1 2 4 0 2 -1 0 -4c-2,0 -1,0 -1,-2l-2 0c-4,1 -3,1 -3,-2l0 0 -2 2z"/>
   <path class="fil14" d="M3824 1169c8,-5 19,-14 23,-23 -9,10 -14,14 -23,23z"/>
   <path class="fil8" d="M3838 1099l4 -1 1 0c0,-2 -1,-2 2,-2l0 -2 -3 -3 -4 0 0 8z"/>
   <path class="fil14" d="M3880 1024c0,2 0,1 2,1 0,2 -1,2 2,1 0,2 -1,2 2,1 -1,2 -1,2 1,2 -1,3 -2,3 1,2l0 6 -1 2 -2 1 2 -1c3,0 2,1 1,-2l2 -3 -2 -3 -1 -2c1,-3 1,-2 -1,-2 0,-2 0,-1 -2,-1 0,-2 1,-2 -2,-1 1,-3 1,-2 -2,-1 -4,-5 -6,-5 -12,-2l12 2z"/>
   <path class="fil14" d="M3841 1043c-15,7 -15,7 -25,-4 4,12 16,14 25,4z"/>
   <path class="fil14" d="M3869 1122l8 -1 0 7c2,-5 2,-3 1,-8 -5,-1 -5,-1 -9,2z"/>
   <path class="fil15" d="M3806 1174l-3 -3 8 -6c-4,2 -10,4 -10,10l5 -1z"/>
   <path class="fil14" d="M3838 1099l4 -1 -4 1 0 -8 4 0 3 3 0 2c-3,0 -2,0 -2,2 3,0 3,1 2,-2l0 -2 -1 -5 -6 2 -2 3 2 5z"/>
   <path class="fil14" d="M3872 1099l15 -15c-5,4 -13,9 -15,15z"/>
   <path class="fil14" d="M3854 1133l9 -8c-6,2 -6,2 -9,8z"/>
   <polygon class="fil14" points="3829,1143 3833,1137 3826,1133 3831,1138 "/>
   <path class="fil14" d="M3854 1074l-3 2 -2 2 2 3 0 -5c4,0 2,1 3,-2l2 0c3,0 3,1 3,-2l-3 2 -2 0z"/>
   <path class="fil14" d="M3895 1134l5 -8 -3 -5c2,8 1,6 -2,13z"/>
   <polygon class="fil15" points="3858,1162 3857,1157 3855,1160 "/>
  </g>
  <g id="_1740114496704">
   <path class="fil5" d="M3712 387c0,3 1,2 -2,1l-5 3 -9 2 -7 3 -3 0c1,2 1,1 -1,1l1 8 1 2c2,0 1,0 1,2 2,0 2,-1 1,1 2,0 2,0 2,2 2,-1 2,-1 2,1l3 1 10 -1c4,-3 5,-5 10,-4l-1 4c-7,12 -30,37 -43,40l0 6 7 0 23 -12c8,12 -6,31 9,39l6 -6c1,-17 -1,-21 -3,-36 -5,-6 5,-13 11,-18 1,-5 10,-17 14,-22 7,-7 1,-18 -6,-22 -9,0 -12,5 -21,5z"/>
   <path class="fil5" d="M3772 410c2,1 1,-2 2,4 1,3 8,17 8,20 0,6 1,21 -1,26l-18 5c-5,3 -12,3 -18,1 -1,-5 -2,-3 2,-7 2,-23 10,-19 -3,-42l-5 -1c-2,6 -6,45 -5,53l0 -2c3,4 3,6 5,8 2,2 5,3 7,6 15,5 26,-2 40,-4 6,-7 12,-7 10,-19 -1,-5 -3,-4 -5,-9 0,-1 -1,-9 -1,-12 -4,-10 -13,-21 -15,-29 -2,-2 -2,2 -1,-4l-2 6z"/>
   <path class="fil5" d="M3704 376l3 10c7,-2 4,-6 9,-12 0,-11 -3,-23 -16,-20 -2,6 4,13 4,22z"/>
   <path class="fil16" d="M3731 446c0,-6 1,-3 -1,-4 1,-3 1,-2 -2,-2 0,3 -1,3 2,2l1 4 -1 7 -7 1c1,-2 1,-2 -1,-1 1,-3 1,-3 -1,-3 -1,4 -2,4 1,3 -1,3 -2,2 1,1 6,3 3,2 9,1 0,7 -3,8 2,14 -1,-8 3,-47 5,-53l5 1c-3,-4 0,-2 -5,-3 -5,5 -4,21 -5,30l-3 2z"/>
   <path class="fil5" d="M3716 437l5 13c2,0 2,0 1,3 2,-1 2,-1 1,1l7 -1 1 -7 -1 -4c-3,1 -2,1 -2,-2l-4 -2c-5,-1 -2,0 -3,-2l-5 1z"/>
   <path class="fil17" d="M3679 459c8,-2 20,-10 23,-10 3,14 -6,32 9,39 4,-2 4,-4 6,-8l-6 6c-15,-8 -1,-27 -9,-39l-23 12z"/>
   <path class="fil17" d="M3786 477c8,-4 14,-9 11,-19 -1,-6 -3,-3 -4,-10 -1,-6 0,-5 -3,-11 0,3 1,11 1,12 2,5 4,4 5,9 2,12 -4,12 -10,19z"/>
   <path class="fil16" d="M3714 444l2 -7 5 -1c1,2 -2,1 3,2l-3 -2 -2 -2 6 -8c-6,5 -16,12 -11,18z"/>
   <path class="fil16" d="M3704 376l1 11 5 1 -5 3 5 -3c3,1 2,2 2,-1l4 -13c-5,6 -2,10 -9,12l-3 -10z"/>
   <path class="fil17" d="M3763 465l-17 0 1 -6c-4,4 -3,2 -2,7 6,2 13,2 18,-1z"/>
   <path class="fil16" d="M3772 410c-1,7 -1,2 2,4 -1,-6 0,-3 -2,-4l2 -6c-1,6 -1,2 1,4 0,-6 1,-3 -1,-4l-3 -1 1 7z"/>
   <path class="fil16" d="M3672 459l0 -6c-5,1 -3,-1 -5,4l5 2z"/>
   <path class="fil17" d="M3686 396c-2,-1 -2,-1 -1,1l-1 5 2 3 1 2c-1,3 -1,2 1,2 0,2 -1,2 1,1 0,3 -1,2 2,2 0,2 -1,1 2,1l3 1 -3 -1c0,-2 0,-2 -2,-1 0,-2 0,-2 -2,-2 1,-2 1,-1 -1,-1 0,-2 1,-2 -1,-2l-1 -2 -1 -8c2,0 2,1 1,-1l3 0 7 -3 -7 3 -3 0z"/>
   <path class="fil17" d="M3706 413l7 -3 2 3 1 -4c-5,-1 -6,1 -10,4z"/>
   <path class="fil17" d="M3746 481c-2,-3 -5,-4 -7,-6 -2,-2 -2,-4 -5,-8 3,8 5,11 12,14z"/>
  </g>
  <g id="_1740114490208">
   <path class="fil5" d="M3864 895l0 -4 2 -7c-2,0 -2,0 -1,-2 -2,0 -2,1 -2,-2 -2,1 -2,2 -2,-1l-6 0 -8 17 9 -1c-7,6 -18,4 -26,8 -1,10 10,13 19,11 3,-4 3,-4 7,-4 2,5 1,9 0,15l-4 3c2,4 4,7 9,8 9,-8 -3,-26 7,-32 5,-3 11,-5 15,-4 4,13 9,26 -5,34 -5,7 -8,6 -11,15l5 0c13,-4 14,-10 23,-13 6,1 13,9 18,12 6,4 19,6 21,-3 0,-4 -13,-35 -20,-36 0,3 4,8 5,15 2,6 2,2 0,8 -5,1 -6,0 -9,-5 -12,-9 8,-12 -7,-27l-4 5c-3,-3 -2,-3 -1,-7 13,-4 18,3 27,-1 0,-2 0,-2 2,-2l1 -7c-3,0 -2,1 -2,-2 -3,0 -2,1 -2,-2 -2,1 -2,2 -2,-1l-2 0 -8 -1 -6 1c-4,3 -6,3 -12,2l-1 -4c-3,0 -2,0 -2,-3 -3,-2 -3,-3 -7,-3l-1 13 -19 7z"/>
   <path class="fil5" d="M3892 797l-2 2c1,3 1,3 -1,2 1,3 1,3 -1,2l-2 3c0,2 1,1 -2,1 -1,5 -5,11 -9,13 -8,-10 -2,-11 -18,-14l-4 1 1 8 0 2c3,1 2,-1 2,3 3,0 2,-1 2,1l2 1 3 2 5 2 0 3c0,2 1,1 -2,1l-2 1 -3 1c-6,2 -6,0 -9,5l11 10c5,0 5,-1 8,1 -1,5 -3,4 -8,5l-6 3 2 5c8,1 12,-3 13,2 -6,4 -12,2 -19,4 -2,16 17,6 22,5 10,-4 28,0 33,-6l-3 -4c-6,-9 -15,3 -23,-2 3,-6 9,-2 16,-7 -3,-12 -10,-1 -17,-6 1,-10 13,-2 22,-11 1,-15 -10,-11 -19,-10 -5,3 -3,4 -8,0l9 -2c14,-11 28,-7 17,-28l-9 -1c0,3 1,2 -1,2z"/>
   <path class="fil5" d="M3838 921l0 3 -3 4 -5 12c7,0 18,-7 17,-16 -2,0 -1,0 -1,-3 -2,0 -1,0 -1,-2l-4 0 -3 2z"/>
   <path class="fil5" d="M3868 913l-1 4 1 3c2,5 2,6 7,8 5,-1 6,-4 7,-9l-2 -2 -1 -2c-2,0 -2,0 -1,-2 -3,0 -2,1 -2,-1l-5 -2 -3 3z"/>
   <path class="fil18" d="M3849 914l6 -2 0 11 -5 3c2,5 6,11 12,11 7,-5 4,-12 5,-20 -1,5 -1,2 1,3l-1 -3 1 -4 3 -3 5 2c0,2 -1,1 2,1 -1,2 -1,2 1,2l1 2 2 2 -2 -2 -1 -2c0,-3 1,-2 -1,-2 0,-3 0,-2 -2,-1l-5 -2 -2 0 -1 3 -2 -5 2 -4c-10,6 2,24 -7,32 -5,-1 -7,-4 -9,-8l4 -3c1,-6 2,-10 0,-15 -4,0 -4,0 -7,4z"/>
   <path class="fil5" d="M3909 872l1 5 13 -6c-1,-6 0,-6 -4,-9l-6 0 -4 10z"/>
   <path class="fil18" d="M3893 881l1 4c6,1 8,1 12,-2l6 -1 8 1 2 0c0,3 0,2 2,1 0,3 -1,2 2,2 0,3 -1,2 2,2l-1 7c-2,0 -2,0 -2,2 3,0 3,1 2,-2l3 -4 -2 -3c1,-3 1,-2 -2,-2l-2 -2c0,-2 1,-2 -2,-1l-2 0c-4,-3 -4,-3 -8,-1l-6 1 -11 1 -2 -3c1,-4 1,-3 -2,-3 0,3 -1,3 2,3z"/>
   <path class="fil18" d="M3905 862l3 4 1 -1 0 7 -1 2 2 3 -1 -5 4 -10 6 0 -3 -2c-7,2 -5,4 -11,2z"/>
   <path class="fil18" d="M3872 949l-5 0c3,-9 6,-8 11,-15 -5,3 -13,10 -12,16 4,1 2,1 6,-1z"/>
   <path class="fil18" d="M3854 815l0 2 2 3c0,2 -1,2 2,1 -1,3 -1,2 2,1l3 2 5 5c-3,-1 -2,-1 -2,1l-2 1 -3 1 3 -1 2 -1c3,0 2,1 2,-1l0 -3 -5 -2 -3 -2 -2 -1c0,-2 1,-1 -2,-1 0,-4 1,-2 -2,-3l0 -2 -1 -8 4 -1 -4 1 -2 3 3 5z"/>
   <path class="fil18" d="M3892 797c-2,1 -2,-2 -2,2 -3,0 -2,0 -1,2 -3,0 -2,0 -1,2l-2 3 -2 1c3,0 2,1 2,-1l2 -3c2,1 2,1 1,-2 2,1 2,1 1,-2l2 -2c2,0 1,1 1,-2l9 1 -4 -3 -5 2c-3,-1 -2,-1 -1,2z"/>
   <path class="fil18" d="M3910 927c3,5 4,6 9,5 2,-6 2,-2 0,-8l-1 7c-5,0 -4,-1 -8,-4z"/>
   <path class="fil18" d="M3861 879c0,3 0,2 2,1 0,3 0,2 2,2 -1,2 -1,2 1,2l-2 7 0 4 0 -4 3 -3 -1 -4c1,-3 2,-3 -1,-2 1,-3 1,-3 -2,-2 1,-2 1,-2 -2,-1l-2 -1 -4 1 6 0z"/>
   <path class="fil18" d="M3884 826l1 -2 -9 2c5,4 3,3 8,0z"/>
   <path class="fil18" d="M3863 847l-11 -10c3,6 4,9 11,10z"/>
   <path class="fil18" d="M3859 861l-2 -5 6 -3 -7 2c0,5 -1,4 3,6z"/>
   <path class="fil18" d="M3903 900l-4 3 -1 -5c-1,4 -2,4 1,7l4 -5z"/>
   <path class="fil18" d="M3838 921l0 3 -3 4 3 -4 0 -3 3 -2 4 0c0,2 -1,2 1,2 0,3 -1,3 1,3l-1 -3c1,-2 1,-2 -1,-2l-3 -2 -1 2 -3 2z"/>
  </g>
  <g id="_1740114485504">
   <path class="fil3" d="M2394 683c-1,-1 -19,-11 -13,-10 3,0 1,2 5,1 4,-1 11,-5 16,-5 0,5 -5,11 -8,14zm-25 -53c1,4 3,8 6,12 1,2 2,4 3,6 1,2 3,2 4,4l-7 -1c1,5 2,5 0,10 -1,2 -3,5 -4,7 -3,6 -7,10 -10,14 -4,5 -8,9 -12,13 -10,9 -7,5 -14,10 10,5 36,-15 42,-27 5,2 9,7 13,10 -11,14 -24,15 -27,17 16,5 25,-4 35,-11 5,2 15,15 22,17 11,3 24,1 35,-3 -2,-2 -4,-2 -7,-3 -11,-3 -40,-12 -45,-18 4,-3 13,-13 15,-17 -7,-12 -26,-2 -34,-2 2,-2 6,-8 7,-12 12,2 28,3 38,-1 0,-8 -18,-18 -25,-19 3,3 8,8 9,13 -6,1 -10,2 -16,1 -4,0 -9,-3 -11,-5 -6,-6 -7,-12 -17,-15z"/>
   <path class="fil3" d="M2343 624l-1 1 -1 -2c-1,-5 -2,-5 -4,-5 -1,1 -4,13 -5,16 -2,6 2,13 7,13 3,-5 4,-11 3,-18 0,-1 -1,2 0,-2 2,1 -1,0 1,1 1,0 0,0 1,0 5,2 5,3 12,1 4,-1 6,-2 10,-3 14,-5 65,-12 77,-9 1,4 -7,5 -9,8 8,1 24,-3 28,-7 -1,-2 -6,-4 -10,-6 -5,-1 -34,3 -45,2l14 -8c2,-1 2,-1 3,-4 -3,-2 -12,-5 -14,-4 -1,2 3,2 0,5 -3,4 -12,11 -17,12 -1,1 0,0 -1,1 -1,0 -1,0 -2,0l0 -3c-1,-5 -6,-9 -11,-10 0,0 0,0 1,-1 2,0 34,-8 35,-13 -2,-5 -13,-7 -19,-7 0,3 2,3 -1,5 -2,3 -12,7 -17,9 -10,4 -13,4 -22,7 -1,1 -1,0 -2,1 -1,0 -1,0 -1,1 11,1 13,0 23,-1 3,8 5,8 9,12 -1,1 0,1 -2,1l-11 2c-1,-3 1,-9 -15,-11 3,4 7,7 9,12l-23 4z"/>
   <path class="fil2" d="M2394 683c3,-3 8,-9 8,-14 -5,0 -12,4 -16,5 -4,1 -2,-1 -5,-1 -6,-1 12,9 13,10z"/>
   <path class="fil3" d="M2356 639c-1,1 -3,5 -3,6 0,4 4,9 6,11 3,-3 3,-7 3,-12l-4 -10c0,-1 0,-1 0,-1l-2 6z"/>
   <path class="fil3" d="M2409 627l14 9c2,1 3,2 5,2l1 -1c2,-2 -2,-11 -17,-11l-3 0c-1,0 -1,-1 0,1z"/>
   <path class="fil3" d="M2394 630c-2,-2 -6,-4 -8,-5 -1,6 5,13 13,12 1,-4 -3,-6 -5,-7z"/>
   <path class="fil19" d="M2393 615l-3 -1c0,0 0,0 0,0 0,-1 0,-1 0,-1l0 3c1,0 1,0 2,0 1,-1 0,0 1,-1z"/>
   <path class="fil19" d="M2409 627c-1,-2 -1,-1 0,-1l3 0c-1,-1 1,-1 -2,-1 -1,0 -1,0 -2,0 -1,3 0,1 1,2z"/>
   <path class="fil19" d="M2342 629l1 -1 1 0c-1,0 0,0 -1,0 -2,-1 1,0 -1,-1 -1,4 0,1 0,2z"/>
   <path class="fil19" d="M2343 624c-2,0 -1,0 -2,-1l1 2 1 -1z"/>
  </g>
 </g>
</svg>
